<svg width="306" height="125" viewBox="0 0 306 125" fill="none" xmlns="http://www.w3.org/2000/svg">
<path d="M2 43.9223V18H50.1259" stroke="white" stroke-opacity="0.8" stroke-width="3.64078"/>
<path d="M50.1259 107H2L2 81.0777" stroke="white" stroke-opacity="0.8" stroke-width="3.64078"/>
<path d="M303.735 81.0777V107H255.609" stroke="white" stroke-opacity="0.8" stroke-width="3.64078"/>
<path d="M255.609 18L303.735 18V43.9223" stroke="white" stroke-opacity="0.8" stroke-width="3.64078"/>
<path d="M75 84.1599V78.6872H80.304V84.1599H75ZM75 80.2508V74.7782H80.304V80.2508H75ZM75 76.3418V70.8691H80.304V76.3418H75ZM75 72.4327V66.9601H80.304V72.4327H75ZM75 68.5237V63.051H80.304V68.5237H75ZM78.7886 68.5237V63.051H84.0926V68.5237H78.7886ZM82.5772 68.5237V63.051H87.8812V68.5237H82.5772ZM86.3657 68.5237V63.051H91.6697V68.5237H86.3657ZM75 64.6147V59.142H80.304V64.6147H75ZM90.1543 64.6147V59.142H95.4583V64.6147H90.1543ZM75 60.7056V55.233H80.304V60.7056H75ZM90.1543 60.7056V55.233H95.4583V60.7056H90.1543ZM75 56.7966V51.3239H80.304V56.7966H75ZM90.1543 56.7966V51.3239H95.4583V56.7966H90.1543ZM75 52.8875V47.4149H80.304V52.8875H75ZM90.1543 52.8875V47.4149H95.4583V52.8875H90.1543ZM75 48.9785V43.5058H80.304V48.9785H75ZM90.1543 48.9785V43.5058H95.4583V48.9785H90.1543ZM75 45.0695V39.5968H80.304V45.0695H75ZM78.7886 45.0695V39.5968H84.0926V45.0695H78.7886ZM82.5772 45.0695V39.5968H87.8812V45.0695H82.5772ZM86.3657 45.0695V39.5968H91.6697V45.0695H86.3657Z" fill="white"/>
<path d="M99.6553 84.1599V78.6872H104.959V84.1599H99.6553ZM103.444 84.1599V78.6872H108.748V84.1599H103.444ZM107.233 84.1599V78.6872H112.537V84.1599H107.233ZM111.021 84.1599V78.6872H116.325V84.1599H111.021ZM99.6553 80.2508V74.7782H104.959V80.2508H99.6553ZM99.6553 76.3418V70.8691H104.959V76.3418H99.6553ZM99.6553 72.4327V66.9601H104.959V72.4327H99.6553ZM99.6553 68.5237V63.051H104.959V68.5237H99.6553ZM99.6553 64.6147V59.142H104.959V64.6147H99.6553ZM99.6553 60.7056V55.233H104.959V60.7056H99.6553ZM99.6553 56.7966V51.3239H104.959V56.7966H99.6553ZM99.6553 52.8875V47.4149H104.959V52.8875H99.6553ZM99.6553 48.9785V43.5058H104.959V48.9785H99.6553ZM99.6553 45.0695V39.5968H104.959V45.0695H99.6553Z" fill="white"/>
<path d="M120.474 84.1599C120.474 83.1555 120.474 82.2434 120.474 81.4235C120.474 80.6037 120.474 79.6916 120.474 78.6872C121.426 78.6872 122.31 78.6872 123.126 78.6872C123.947 78.6872 124.831 78.6872 125.778 78.6872C125.778 79.6916 125.778 80.6037 125.778 81.4235C125.778 82.2434 125.778 83.1555 125.778 84.1599C124.831 84.1599 123.947 84.1599 123.126 84.1599C122.31 84.1599 121.426 84.1599 120.474 84.1599ZM120.474 84.1599C120.474 83.1555 120.474 82.2434 120.474 81.4235C120.474 80.6037 120.474 79.6916 120.474 78.6872C121.426 78.6872 122.31 78.6872 123.126 78.6872C123.947 78.6872 124.831 78.6872 125.778 78.6872C125.778 79.6916 125.778 80.6037 125.778 81.4235C125.778 82.2434 125.778 83.1555 125.778 84.1599C124.831 84.1599 123.947 84.1599 123.126 84.1599C122.31 84.1599 121.426 84.1599 120.474 84.1599ZM120.474 84.1599C120.474 83.1555 120.474 82.2434 120.474 81.4235C120.474 80.6037 120.474 79.6916 120.474 78.6872C121.426 78.6872 122.31 78.6872 123.126 78.6872C123.947 78.6872 124.831 78.6872 125.778 78.6872C125.778 79.6916 125.778 80.6037 125.778 81.4235C125.778 82.2434 125.778 83.1555 125.778 84.1599C124.831 84.1599 123.947 84.1599 123.126 84.1599C122.31 84.1599 121.426 84.1599 120.474 84.1599ZM120.474 84.1599C120.474 83.1555 120.474 82.2434 120.474 81.4235C120.474 80.6037 120.474 79.6916 120.474 78.6872C121.426 78.6872 122.31 78.6872 123.126 78.6872C123.947 78.6872 124.831 78.6872 125.778 78.6872C125.778 79.6916 125.778 80.6037 125.778 81.4235C125.778 82.2434 125.778 83.1555 125.778 84.1599C124.831 84.1599 123.947 84.1599 123.126 84.1599C122.31 84.1599 121.426 84.1599 120.474 84.1599ZM120.474 84.1599C120.474 83.1555 120.474 82.2434 120.474 81.4235C120.474 80.6037 120.474 79.6916 120.474 78.6872C121.426 78.6872 122.31 78.6872 123.126 78.6872C123.947 78.6872 124.831 78.6872 125.778 78.6872C125.778 79.6916 125.778 80.6037 125.778 81.4235C125.778 82.2434 125.778 83.1555 125.778 84.1599C124.831 84.1599 123.947 84.1599 123.126 84.1599C122.31 84.1599 121.426 84.1599 120.474 84.1599ZM120.474 84.1599C120.474 83.1555 120.474 82.2434 120.474 81.4235C120.474 80.6037 120.474 79.6916 120.474 78.6872C121.426 78.6872 122.31 78.6872 123.126 78.6872C123.947 78.6872 124.831 78.6872 125.778 78.6872C125.778 79.6916 125.778 80.6037 125.778 81.4235C125.778 82.2434 125.778 83.1555 125.778 84.1599C124.831 84.1599 123.947 84.1599 123.126 84.1599C122.31 84.1599 121.426 84.1599 120.474 84.1599ZM120.474 84.1599C120.474 83.1555 120.474 82.2434 120.474 81.4235C120.474 80.6037 120.474 79.6916 120.474 78.6872C121.426 78.6872 122.31 78.6872 123.126 78.6872C123.947 78.6872 124.831 78.6872 125.778 78.6872C125.778 79.6916 125.778 80.6037 125.778 81.4235C125.778 82.2434 125.778 83.1555 125.778 84.1599C124.831 84.1599 123.947 84.1599 123.126 84.1599C122.31 84.1599 121.426 84.1599 120.474 84.1599ZM120.474 84.1599C120.474 83.1555 120.474 82.2434 120.474 81.4235C120.474 80.6037 120.474 79.6916 120.474 78.6872C121.426 78.6872 122.31 78.6872 123.126 78.6872C123.947 78.6872 124.831 78.6872 125.778 78.6872C125.778 79.6916 125.778 80.6037 125.778 81.4235C125.778 82.2434 125.778 83.1555 125.778 84.1599C124.831 84.1599 123.947 84.1599 123.126 84.1599C122.31 84.1599 121.426 84.1599 120.474 84.1599ZM120.474 84.1599C120.474 83.1555 120.474 82.2434 120.474 81.4235C120.474 80.6037 120.474 79.6916 120.474 78.6872C121.426 78.6872 122.31 78.6872 123.126 78.6872C123.947 78.6872 124.831 78.6872 125.778 78.6872C125.778 79.6916 125.778 80.6037 125.778 81.4235C125.778 82.2434 125.778 83.1555 125.778 84.1599C124.831 84.1599 123.947 84.1599 123.126 84.1599C122.31 84.1599 121.426 84.1599 120.474 84.1599ZM135.628 84.1599C135.628 83.1555 135.628 82.2434 135.628 81.4235C135.628 80.6037 135.628 79.6916 135.628 78.6872C136.581 78.6872 137.465 78.6872 138.28 78.6872C139.101 78.6872 139.985 78.6872 140.932 78.6872C140.932 79.6916 140.932 80.6037 140.932 81.4235C140.932 82.2434 140.932 83.1555 140.932 84.1599C139.985 84.1599 139.101 84.1599 138.28 84.1599C137.465 84.1599 136.581 84.1599 135.628 84.1599ZM135.628 84.1599C135.628 83.1555 135.628 82.2434 135.628 81.4235C135.628 80.6037 135.628 79.6916 135.628 78.6872C136.581 78.6872 137.465 78.6872 138.28 78.6872C139.101 78.6872 139.985 78.6872 140.932 78.6872C140.932 79.6916 140.932 80.6037 140.932 81.4235C140.932 82.2434 140.932 83.1555 140.932 84.1599C139.985 84.1599 139.101 84.1599 138.28 84.1599C137.465 84.1599 136.581 84.1599 135.628 84.1599ZM135.628 84.1599C135.628 83.1555 135.628 82.2434 135.628 81.4235C135.628 80.6037 135.628 79.6916 135.628 78.6872C136.581 78.6872 137.465 78.6872 138.28 78.6872C139.101 78.6872 139.985 78.6872 140.932 78.6872C140.932 79.6916 140.932 80.6037 140.932 81.4235C140.932 82.2434 140.932 83.1555 140.932 84.1599C139.985 84.1599 139.101 84.1599 138.28 84.1599C137.465 84.1599 136.581 84.1599 135.628 84.1599ZM135.628 84.1599C135.628 83.1555 135.628 82.2434 135.628 81.4235C135.628 80.6037 135.628 79.6916 135.628 78.6872C136.581 78.6872 137.465 78.6872 138.28 78.6872C139.101 78.6872 139.985 78.6872 140.932 78.6872C140.932 79.6916 140.932 80.6037 140.932 81.4235C140.932 82.2434 140.932 83.1555 140.932 84.1599C139.985 84.1599 139.101 84.1599 138.28 84.1599C137.465 84.1599 136.581 84.1599 135.628 84.1599ZM135.628 84.1599C135.628 83.1555 135.628 82.2434 135.628 81.4235C135.628 80.6037 135.628 79.6916 135.628 78.6872C136.581 78.6872 137.465 78.6872 138.28 78.6872C139.101 78.6872 139.985 78.6872 140.932 78.6872C140.932 79.6916 140.932 80.6037 140.932 81.4235C140.932 82.2434 140.932 83.1555 140.932 84.1599C139.985 84.1599 139.101 84.1599 138.28 84.1599C137.465 84.1599 136.581 84.1599 135.628 84.1599ZM135.628 84.1599C135.628 83.1555 135.628 82.2434 135.628 81.4235C135.628 80.6037 135.628 79.6916 135.628 78.6872C136.581 78.6872 137.465 78.6872 138.28 78.6872C139.101 78.6872 139.985 78.6872 140.932 78.6872C140.932 79.6916 140.932 80.6037 140.932 81.4235C140.932 82.2434 140.932 83.1555 140.932 84.1599C139.985 84.1599 139.101 84.1599 138.28 84.1599C137.465 84.1599 136.581 84.1599 135.628 84.1599ZM135.628 84.1599C135.628 83.1555 135.628 82.2434 135.628 81.4235C135.628 80.6037 135.628 79.6916 135.628 78.6872C136.581 78.6872 137.465 78.6872 138.28 78.6872C139.101 78.6872 139.985 78.6872 140.932 78.6872C140.932 79.6916 140.932 80.6037 140.932 81.4235C140.932 82.2434 140.932 83.1555 140.932 84.1599C139.985 84.1599 139.101 84.1599 138.28 84.1599C137.465 84.1599 136.581 84.1599 135.628 84.1599ZM135.628 84.1599C135.628 83.1555 135.628 82.2434 135.628 81.4235C135.628 80.6037 135.628 79.6916 135.628 78.6872C136.581 78.6872 137.465 78.6872 138.28 78.6872C139.101 78.6872 139.985 78.6872 140.932 78.6872C140.932 79.6916 140.932 80.6037 140.932 81.4235C140.932 82.2434 140.932 83.1555 140.932 84.1599C139.985 84.1599 139.101 84.1599 138.28 84.1599C137.465 84.1599 136.581 84.1599 135.628 84.1599ZM135.628 84.1599C135.628 83.1555 135.628 82.2434 135.628 81.4235C135.628 80.6037 135.628 79.6916 135.628 78.6872C136.581 78.6872 137.465 78.6872 138.28 78.6872C139.101 78.6872 139.985 78.6872 140.932 78.6872C140.932 79.6916 140.932 80.6037 140.932 81.4235C140.932 82.2434 140.932 83.1555 140.932 84.1599C139.985 84.1599 139.101 84.1599 138.28 84.1599C137.465 84.1599 136.581 84.1599 135.628 84.1599ZM120.474 80.2508C120.474 79.2464 120.474 78.3343 120.474 77.5145C120.474 76.6947 120.474 75.7826 120.474 74.7782C121.426 74.7782 122.31 74.7782 123.126 74.7782C123.947 74.7782 124.831 74.7782 125.778 74.7782C125.778 75.7826 125.778 76.6947 125.778 77.5145C125.778 78.3343 125.778 79.2464 125.778 80.2508C124.831 80.2508 123.947 80.2508 123.126 80.2508C122.31 80.2508 121.426 80.2508 120.474 80.2508ZM120.474 80.2508C120.474 79.2464 120.474 78.3343 120.474 77.5145C120.474 76.6947 120.474 75.7826 120.474 74.7782C121.426 74.7782 122.31 74.7782 123.126 74.7782C123.947 74.7782 124.831 74.7782 125.778 74.7782C125.778 75.7826 125.778 76.6947 125.778 77.5145C125.778 78.3343 125.778 79.2464 125.778 80.2508C124.831 80.2508 123.947 80.2508 123.126 80.2508C122.31 80.2508 121.426 80.2508 120.474 80.2508ZM120.474 80.2508C120.474 79.2464 120.474 78.3343 120.474 77.5145C120.474 76.6947 120.474 75.7826 120.474 74.7782C121.426 74.7782 122.31 74.7782 123.126 74.7782C123.947 74.7782 124.831 74.7782 125.778 74.7782C125.778 75.7826 125.778 76.6947 125.778 77.5145C125.778 78.3343 125.778 79.2464 125.778 80.2508C124.831 80.2508 123.947 80.2508 123.126 80.2508C122.31 80.2508 121.426 80.2508 120.474 80.2508ZM120.474 80.2508C120.474 79.2464 120.474 78.3343 120.474 77.5145C120.474 76.6947 120.474 75.7826 120.474 74.7782C121.426 74.7782 122.31 74.7782 123.126 74.7782C123.947 74.7782 124.831 74.7782 125.778 74.7782C125.778 75.7826 125.778 76.6947 125.778 77.5145C125.778 78.3343 125.778 79.2464 125.778 80.2508C124.831 80.2508 123.947 80.2508 123.126 80.2508C122.31 80.2508 121.426 80.2508 120.474 80.2508ZM120.474 80.2508C120.474 79.2464 120.474 78.3343 120.474 77.5145C120.474 76.6947 120.474 75.7826 120.474 74.7782C121.426 74.7782 122.31 74.7782 123.126 74.7782C123.947 74.7782 124.831 74.7782 125.778 74.7782C125.778 75.7826 125.778 76.6947 125.778 77.5145C125.778 78.3343 125.778 79.2464 125.778 80.2508C124.831 80.2508 123.947 80.2508 123.126 80.2508C122.31 80.2508 121.426 80.2508 120.474 80.2508ZM120.474 80.2508C120.474 79.2464 120.474 78.3343 120.474 77.5145C120.474 76.6947 120.474 75.7826 120.474 74.7782C121.426 74.7782 122.31 74.7782 123.126 74.7782C123.947 74.7782 124.831 74.7782 125.778 74.7782C125.778 75.7826 125.778 76.6947 125.778 77.5145C125.778 78.3343 125.778 79.2464 125.778 80.2508C124.831 80.2508 123.947 80.2508 123.126 80.2508C122.31 80.2508 121.426 80.2508 120.474 80.2508ZM120.474 80.2508C120.474 79.2464 120.474 78.3343 120.474 77.5145C120.474 76.6947 120.474 75.7826 120.474 74.7782C121.426 74.7782 122.31 74.7782 123.126 74.7782C123.947 74.7782 124.831 74.7782 125.778 74.7782C125.778 75.7826 125.778 76.6947 125.778 77.5145C125.778 78.3343 125.778 79.2464 125.778 80.2508C124.831 80.2508 123.947 80.2508 123.126 80.2508C122.31 80.2508 121.426 80.2508 120.474 80.2508ZM120.474 80.2508C120.474 79.2464 120.474 78.3343 120.474 77.5145C120.474 76.6947 120.474 75.7826 120.474 74.7782C121.426 74.7782 122.31 74.7782 123.126 74.7782C123.947 74.7782 124.831 74.7782 125.778 74.7782C125.778 75.7826 125.778 76.6947 125.778 77.5145C125.778 78.3343 125.778 79.2464 125.778 80.2508C124.831 80.2508 123.947 80.2508 123.126 80.2508C122.31 80.2508 121.426 80.2508 120.474 80.2508ZM120.474 80.2508C120.474 79.2464 120.474 78.3343 120.474 77.5145C120.474 76.6947 120.474 75.7826 120.474 74.7782C121.426 74.7782 122.31 74.7782 123.126 74.7782C123.947 74.7782 124.831 74.7782 125.778 74.7782C125.778 75.7826 125.778 76.6947 125.778 77.5145C125.778 78.3343 125.778 79.2464 125.778 80.2508C124.831 80.2508 123.947 80.2508 123.126 80.2508C122.31 80.2508 121.426 80.2508 120.474 80.2508ZM135.628 80.2508C135.628 79.2464 135.628 78.3343 135.628 77.5145C135.628 76.6947 135.628 75.7826 135.628 74.7782C136.581 74.7782 137.465 74.7782 138.28 74.7782C139.101 74.7782 139.985 74.7782 140.932 74.7782C140.932 75.7826 140.932 76.6947 140.932 77.5145C140.932 78.3343 140.932 79.2464 140.932 80.2508C139.985 80.2508 139.101 80.2508 138.28 80.2508C137.465 80.2508 136.581 80.2508 135.628 80.2508ZM135.628 80.2508C135.628 79.2464 135.628 78.3343 135.628 77.5145C135.628 76.6947 135.628 75.7826 135.628 74.7782C136.581 74.7782 137.465 74.7782 138.28 74.7782C139.101 74.7782 139.985 74.7782 140.932 74.7782C140.932 75.7826 140.932 76.6947 140.932 77.5145C140.932 78.3343 140.932 79.2464 140.932 80.2508C139.985 80.2508 139.101 80.2508 138.28 80.2508C137.465 80.2508 136.581 80.2508 135.628 80.2508ZM135.628 80.2508C135.628 79.2464 135.628 78.3343 135.628 77.5145C135.628 76.6947 135.628 75.7826 135.628 74.7782C136.581 74.7782 137.465 74.7782 138.28 74.7782C139.101 74.7782 139.985 74.7782 140.932 74.7782C140.932 75.7826 140.932 76.6947 140.932 77.5145C140.932 78.3343 140.932 79.2464 140.932 80.2508C139.985 80.2508 139.101 80.2508 138.28 80.2508C137.465 80.2508 136.581 80.2508 135.628 80.2508ZM135.628 80.2508C135.628 79.2464 135.628 78.3343 135.628 77.5145C135.628 76.6947 135.628 75.7826 135.628 74.7782C136.581 74.7782 137.465 74.7782 138.28 74.7782C139.101 74.7782 139.985 74.7782 140.932 74.7782C140.932 75.7826 140.932 76.6947 140.932 77.5145C140.932 78.3343 140.932 79.2464 140.932 80.2508C139.985 80.2508 139.101 80.2508 138.28 80.2508C137.465 80.2508 136.581 80.2508 135.628 80.2508ZM135.628 80.2508C135.628 79.2464 135.628 78.3343 135.628 77.5145C135.628 76.6947 135.628 75.7826 135.628 74.7782C136.581 74.7782 137.465 74.7782 138.28 74.7782C139.101 74.7782 139.985 74.7782 140.932 74.7782C140.932 75.7826 140.932 76.6947 140.932 77.5145C140.932 78.3343 140.932 79.2464 140.932 80.2508C139.985 80.2508 139.101 80.2508 138.28 80.2508C137.465 80.2508 136.581 80.2508 135.628 80.2508ZM135.628 80.2508C135.628 79.2464 135.628 78.3343 135.628 77.5145C135.628 76.6947 135.628 75.7826 135.628 74.7782C136.581 74.7782 137.465 74.7782 138.28 74.7782C139.101 74.7782 139.985 74.7782 140.932 74.7782C140.932 75.7826 140.932 76.6947 140.932 77.5145C140.932 78.3343 140.932 79.2464 140.932 80.2508C139.985 80.2508 139.101 80.2508 138.28 80.2508C137.465 80.2508 136.581 80.2508 135.628 80.2508ZM135.628 80.2508C135.628 79.2464 135.628 78.3343 135.628 77.5145C135.628 76.6947 135.628 75.7826 135.628 74.7782C136.581 74.7782 137.465 74.7782 138.28 74.7782C139.101 74.7782 139.985 74.7782 140.932 74.7782C140.932 75.7826 140.932 76.6947 140.932 77.5145C140.932 78.3343 140.932 79.2464 140.932 80.2508C139.985 80.2508 139.101 80.2508 138.28 80.2508C137.465 80.2508 136.581 80.2508 135.628 80.2508ZM135.628 80.2508C135.628 79.2464 135.628 78.3343 135.628 77.5145C135.628 76.6947 135.628 75.7826 135.628 74.7782C136.581 74.7782 137.465 74.7782 138.28 74.7782C139.101 74.7782 139.985 74.7782 140.932 74.7782C140.932 75.7826 140.932 76.6947 140.932 77.5145C140.932 78.3343 140.932 79.2464 140.932 80.2508C139.985 80.2508 139.101 80.2508 138.28 80.2508C137.465 80.2508 136.581 80.2508 135.628 80.2508ZM135.628 80.2508C135.628 79.2464 135.628 78.3343 135.628 77.5145C135.628 76.6947 135.628 75.7826 135.628 74.7782C136.581 74.7782 137.465 74.7782 138.28 74.7782C139.101 74.7782 139.985 74.7782 140.932 74.7782C140.932 75.7826 140.932 76.6947 140.932 77.5145C140.932 78.3343 140.932 79.2464 140.932 80.2508C139.985 80.2508 139.101 80.2508 138.28 80.2508C137.465 80.2508 136.581 80.2508 135.628 80.2508ZM120.474 76.3418C120.474 75.3374 120.474 74.4253 120.474 73.6055C120.474 72.7856 120.474 71.8735 120.474 70.8691C121.426 70.8691 122.31 70.8691 123.126 70.8691C123.947 70.8691 124.831 70.8691 125.778 70.8691C125.778 71.8735 125.778 72.7856 125.778 73.6055C125.778 74.4253 125.778 75.3374 125.778 76.3418C124.831 76.3418 123.947 76.3418 123.126 76.3418C122.31 76.3418 121.426 76.3418 120.474 76.3418ZM120.474 76.3418C120.474 75.3374 120.474 74.4253 120.474 73.6055C120.474 72.7856 120.474 71.8735 120.474 70.8691C121.426 70.8691 122.31 70.8691 123.126 70.8691C123.947 70.8691 124.831 70.8691 125.778 70.8691C125.778 71.8735 125.778 72.7856 125.778 73.6055C125.778 74.4253 125.778 75.3374 125.778 76.3418C124.831 76.3418 123.947 76.3418 123.126 76.3418C122.31 76.3418 121.426 76.3418 120.474 76.3418ZM120.474 76.3418C120.474 75.3374 120.474 74.4253 120.474 73.6055C120.474 72.7856 120.474 71.8735 120.474 70.8691C121.426 70.8691 122.31 70.8691 123.126 70.8691C123.947 70.8691 124.831 70.8691 125.778 70.8691C125.778 71.8735 125.778 72.7856 125.778 73.6055C125.778 74.4253 125.778 75.3374 125.778 76.3418C124.831 76.3418 123.947 76.3418 123.126 76.3418C122.31 76.3418 121.426 76.3418 120.474 76.3418ZM120.474 76.3418C120.474 75.3374 120.474 74.4253 120.474 73.6055C120.474 72.7856 120.474 71.8735 120.474 70.8691C121.426 70.8691 122.31 70.8691 123.126 70.8691C123.947 70.8691 124.831 70.8691 125.778 70.8691C125.778 71.8735 125.778 72.7856 125.778 73.6055C125.778 74.4253 125.778 75.3374 125.778 76.3418C124.831 76.3418 123.947 76.3418 123.126 76.3418C122.31 76.3418 121.426 76.3418 120.474 76.3418ZM120.474 76.3418C120.474 75.3374 120.474 74.4253 120.474 73.6055C120.474 72.7856 120.474 71.8735 120.474 70.8691C121.426 70.8691 122.31 70.8691 123.126 70.8691C123.947 70.8691 124.831 70.8691 125.778 70.8691C125.778 71.8735 125.778 72.7856 125.778 73.6055C125.778 74.4253 125.778 75.3374 125.778 76.3418C124.831 76.3418 123.947 76.3418 123.126 76.3418C122.31 76.3418 121.426 76.3418 120.474 76.3418ZM120.474 76.3418C120.474 75.3374 120.474 74.4253 120.474 73.6055C120.474 72.7856 120.474 71.8735 120.474 70.8691C121.426 70.8691 122.31 70.8691 123.126 70.8691C123.947 70.8691 124.831 70.8691 125.778 70.8691C125.778 71.8735 125.778 72.7856 125.778 73.6055C125.778 74.4253 125.778 75.3374 125.778 76.3418C124.831 76.3418 123.947 76.3418 123.126 76.3418C122.31 76.3418 121.426 76.3418 120.474 76.3418ZM120.474 76.3418C120.474 75.3374 120.474 74.4253 120.474 73.6055C120.474 72.7856 120.474 71.8735 120.474 70.8691C121.426 70.8691 122.31 70.8691 123.126 70.8691C123.947 70.8691 124.831 70.8691 125.778 70.8691C125.778 71.8735 125.778 72.7856 125.778 73.6055C125.778 74.4253 125.778 75.3374 125.778 76.3418C124.831 76.3418 123.947 76.3418 123.126 76.3418C122.31 76.3418 121.426 76.3418 120.474 76.3418ZM120.474 76.3418C120.474 75.3374 120.474 74.4253 120.474 73.6055C120.474 72.7856 120.474 71.8735 120.474 70.8691C121.426 70.8691 122.31 70.8691 123.126 70.8691C123.947 70.8691 124.831 70.8691 125.778 70.8691C125.778 71.8735 125.778 72.7856 125.778 73.6055C125.778 74.4253 125.778 75.3374 125.778 76.3418C124.831 76.3418 123.947 76.3418 123.126 76.3418C122.31 76.3418 121.426 76.3418 120.474 76.3418ZM120.474 76.3418C120.474 75.3374 120.474 74.4253 120.474 73.6055C120.474 72.7856 120.474 71.8735 120.474 70.8691C121.426 70.8691 122.31 70.8691 123.126 70.8691C123.947 70.8691 124.831 70.8691 125.778 70.8691C125.778 71.8735 125.778 72.7856 125.778 73.6055C125.778 74.4253 125.778 75.3374 125.778 76.3418C124.831 76.3418 123.947 76.3418 123.126 76.3418C122.31 76.3418 121.426 76.3418 120.474 76.3418ZM135.628 76.3418C135.628 75.3374 135.628 74.4253 135.628 73.6055C135.628 72.7856 135.628 71.8735 135.628 70.8691C136.581 70.8691 137.465 70.8691 138.28 70.8691C139.101 70.8691 139.985 70.8691 140.932 70.8691C140.932 71.8735 140.932 72.7856 140.932 73.6055C140.932 74.4253 140.932 75.3374 140.932 76.3418C139.985 76.3418 139.101 76.3418 138.28 76.3418C137.465 76.3418 136.581 76.3418 135.628 76.3418ZM135.628 76.3418C135.628 75.3374 135.628 74.4253 135.628 73.6055C135.628 72.7856 135.628 71.8735 135.628 70.8691C136.581 70.8691 137.465 70.8691 138.28 70.8691C139.101 70.8691 139.985 70.8691 140.932 70.8691C140.932 71.8735 140.932 72.7856 140.932 73.6055C140.932 74.4253 140.932 75.3374 140.932 76.3418C139.985 76.3418 139.101 76.3418 138.28 76.3418C137.465 76.3418 136.581 76.3418 135.628 76.3418ZM135.628 76.3418C135.628 75.3374 135.628 74.4253 135.628 73.6055C135.628 72.7856 135.628 71.8735 135.628 70.8691C136.581 70.8691 137.465 70.8691 138.28 70.8691C139.101 70.8691 139.985 70.8691 140.932 70.8691C140.932 71.8735 140.932 72.7856 140.932 73.6055C140.932 74.4253 140.932 75.3374 140.932 76.3418C139.985 76.3418 139.101 76.3418 138.28 76.3418C137.465 76.3418 136.581 76.3418 135.628 76.3418ZM135.628 76.3418C135.628 75.3374 135.628 74.4253 135.628 73.6055C135.628 72.7856 135.628 71.8735 135.628 70.8691C136.581 70.8691 137.465 70.8691 138.28 70.8691C139.101 70.8691 139.985 70.8691 140.932 70.8691C140.932 71.8735 140.932 72.7856 140.932 73.6055C140.932 74.4253 140.932 75.3374 140.932 76.3418C139.985 76.3418 139.101 76.3418 138.28 76.3418C137.465 76.3418 136.581 76.3418 135.628 76.3418ZM135.628 76.3418C135.628 75.3374 135.628 74.4253 135.628 73.6055C135.628 72.7856 135.628 71.8735 135.628 70.8691C136.581 70.8691 137.465 70.8691 138.28 70.8691C139.101 70.8691 139.985 70.8691 140.932 70.8691C140.932 71.8735 140.932 72.7856 140.932 73.6055C140.932 74.4253 140.932 75.3374 140.932 76.3418C139.985 76.3418 139.101 76.3418 138.28 76.3418C137.465 76.3418 136.581 76.3418 135.628 76.3418ZM135.628 76.3418C135.628 75.3374 135.628 74.4253 135.628 73.6055C135.628 72.7856 135.628 71.8735 135.628 70.8691C136.581 70.8691 137.465 70.8691 138.28 70.8691C139.101 70.8691 139.985 70.8691 140.932 70.8691C140.932 71.8735 140.932 72.7856 140.932 73.6055C140.932 74.4253 140.932 75.3374 140.932 76.3418C139.985 76.3418 139.101 76.3418 138.28 76.3418C137.465 76.3418 136.581 76.3418 135.628 76.3418ZM135.628 76.3418C135.628 75.3374 135.628 74.4253 135.628 73.6055C135.628 72.7856 135.628 71.8735 135.628 70.8691C136.581 70.8691 137.465 70.8691 138.28 70.8691C139.101 70.8691 139.985 70.8691 140.932 70.8691C140.932 71.8735 140.932 72.7856 140.932 73.6055C140.932 74.4253 140.932 75.3374 140.932 76.3418C139.985 76.3418 139.101 76.3418 138.28 76.3418C137.465 76.3418 136.581 76.3418 135.628 76.3418ZM135.628 76.3418C135.628 75.3374 135.628 74.4253 135.628 73.6055C135.628 72.7856 135.628 71.8735 135.628 70.8691C136.581 70.8691 137.465 70.8691 138.28 70.8691C139.101 70.8691 139.985 70.8691 140.932 70.8691C140.932 71.8735 140.932 72.7856 140.932 73.6055C140.932 74.4253 140.932 75.3374 140.932 76.3418C139.985 76.3418 139.101 76.3418 138.28 76.3418C137.465 76.3418 136.581 76.3418 135.628 76.3418ZM135.628 76.3418C135.628 75.3374 135.628 74.4253 135.628 73.6055C135.628 72.7856 135.628 71.8735 135.628 70.8691C136.581 70.8691 137.465 70.8691 138.28 70.8691C139.101 70.8691 139.985 70.8691 140.932 70.8691C140.932 71.8735 140.932 72.7856 140.932 73.6055C140.932 74.4253 140.932 75.3374 140.932 76.3418C139.985 76.3418 139.101 76.3418 138.28 76.3418C137.465 76.3418 136.581 76.3418 135.628 76.3418ZM120.474 72.4327C120.474 71.4283 120.474 70.5162 120.474 69.6964C120.474 68.8766 120.474 67.9645 120.474 66.9601C121.426 66.9601 122.31 66.9601 123.126 66.9601C123.947 66.9601 124.831 66.9601 125.778 66.9601C125.778 67.9645 125.778 68.8766 125.778 69.6964C125.778 70.5162 125.778 71.4283 125.778 72.4327C124.831 72.4327 123.947 72.4327 123.126 72.4327C122.31 72.4327 121.426 72.4327 120.474 72.4327ZM120.474 72.4327C120.474 71.4283 120.474 70.5162 120.474 69.6964C120.474 68.8766 120.474 67.9645 120.474 66.9601C121.426 66.9601 122.31 66.9601 123.126 66.9601C123.947 66.9601 124.831 66.9601 125.778 66.9601C125.778 67.9645 125.778 68.8766 125.778 69.6964C125.778 70.5162 125.778 71.4283 125.778 72.4327C124.831 72.4327 123.947 72.4327 123.126 72.4327C122.31 72.4327 121.426 72.4327 120.474 72.4327ZM120.474 72.4327C120.474 71.4283 120.474 70.5162 120.474 69.6964C120.474 68.8766 120.474 67.9645 120.474 66.9601C121.426 66.9601 122.31 66.9601 123.126 66.9601C123.947 66.9601 124.831 66.9601 125.778 66.9601C125.778 67.9645 125.778 68.8766 125.778 69.6964C125.778 70.5162 125.778 71.4283 125.778 72.4327C124.831 72.4327 123.947 72.4327 123.126 72.4327C122.31 72.4327 121.426 72.4327 120.474 72.4327ZM120.474 72.4327C120.474 71.4283 120.474 70.5162 120.474 69.6964C120.474 68.8766 120.474 67.9645 120.474 66.9601C121.426 66.9601 122.31 66.9601 123.126 66.9601C123.947 66.9601 124.831 66.9601 125.778 66.9601C125.778 67.9645 125.778 68.8766 125.778 69.6964C125.778 70.5162 125.778 71.4283 125.778 72.4327C124.831 72.4327 123.947 72.4327 123.126 72.4327C122.31 72.4327 121.426 72.4327 120.474 72.4327ZM120.474 72.4327C120.474 71.4283 120.474 70.5162 120.474 69.6964C120.474 68.8766 120.474 67.9645 120.474 66.9601C121.426 66.9601 122.31 66.9601 123.126 66.9601C123.947 66.9601 124.831 66.9601 125.778 66.9601C125.778 67.9645 125.778 68.8766 125.778 69.6964C125.778 70.5162 125.778 71.4283 125.778 72.4327C124.831 72.4327 123.947 72.4327 123.126 72.4327C122.31 72.4327 121.426 72.4327 120.474 72.4327ZM120.474 72.4327C120.474 71.4283 120.474 70.5162 120.474 69.6964C120.474 68.8766 120.474 67.9645 120.474 66.9601C121.426 66.9601 122.31 66.9601 123.126 66.9601C123.947 66.9601 124.831 66.9601 125.778 66.9601C125.778 67.9645 125.778 68.8766 125.778 69.6964C125.778 70.5162 125.778 71.4283 125.778 72.4327C124.831 72.4327 123.947 72.4327 123.126 72.4327C122.31 72.4327 121.426 72.4327 120.474 72.4327ZM120.474 72.4327C120.474 71.4283 120.474 70.5162 120.474 69.6964C120.474 68.8766 120.474 67.9645 120.474 66.9601C121.426 66.9601 122.31 66.9601 123.126 66.9601C123.947 66.9601 124.831 66.9601 125.778 66.9601C125.778 67.9645 125.778 68.8766 125.778 69.6964C125.778 70.5162 125.778 71.4283 125.778 72.4327C124.831 72.4327 123.947 72.4327 123.126 72.4327C122.31 72.4327 121.426 72.4327 120.474 72.4327ZM120.474 72.4327C120.474 71.4283 120.474 70.5162 120.474 69.6964C120.474 68.8766 120.474 67.9645 120.474 66.9601C121.426 66.9601 122.31 66.9601 123.126 66.9601C123.947 66.9601 124.831 66.9601 125.778 66.9601C125.778 67.9645 125.778 68.8766 125.778 69.6964C125.778 70.5162 125.778 71.4283 125.778 72.4327C124.831 72.4327 123.947 72.4327 123.126 72.4327C122.31 72.4327 121.426 72.4327 120.474 72.4327ZM120.474 72.4327C120.474 71.4283 120.474 70.5162 120.474 69.6964C120.474 68.8766 120.474 67.9645 120.474 66.9601C121.426 66.9601 122.31 66.9601 123.126 66.9601C123.947 66.9601 124.831 66.9601 125.778 66.9601C125.778 67.9645 125.778 68.8766 125.778 69.6964C125.778 70.5162 125.778 71.4283 125.778 72.4327C124.831 72.4327 123.947 72.4327 123.126 72.4327C122.31 72.4327 121.426 72.4327 120.474 72.4327ZM124.263 72.4327C124.263 71.4283 124.263 70.5162 124.263 69.6964C124.263 68.8766 124.263 67.9645 124.263 66.9601C125.215 66.9601 126.099 66.9601 126.915 66.9601C127.735 66.9601 128.619 66.9601 129.567 66.9601C129.567 67.9645 129.567 68.8766 129.567 69.6964C129.567 70.5162 129.567 71.4283 129.567 72.4327C128.619 72.4327 127.735 72.4327 126.915 72.4327C126.099 72.4327 125.215 72.4327 124.263 72.4327ZM124.263 72.4327C124.263 71.4283 124.263 70.5162 124.263 69.6964C124.263 68.8766 124.263 67.9645 124.263 66.9601C125.215 66.9601 126.099 66.9601 126.915 66.9601C127.735 66.9601 128.619 66.9601 129.567 66.9601C129.567 67.9645 129.567 68.8766 129.567 69.6964C129.567 70.5162 129.567 71.4283 129.567 72.4327C128.619 72.4327 127.735 72.4327 126.915 72.4327C126.099 72.4327 125.215 72.4327 124.263 72.4327ZM124.263 72.4327C124.263 71.4283 124.263 70.5162 124.263 69.6964C124.263 68.8766 124.263 67.9645 124.263 66.9601C125.215 66.9601 126.099 66.9601 126.915 66.9601C127.735 66.9601 128.619 66.9601 129.567 66.9601C129.567 67.9645 129.567 68.8766 129.567 69.6964C129.567 70.5162 129.567 71.4283 129.567 72.4327C128.619 72.4327 127.735 72.4327 126.915 72.4327C126.099 72.4327 125.215 72.4327 124.263 72.4327ZM124.263 72.4327C124.263 71.4283 124.263 70.5162 124.263 69.6964C124.263 68.8766 124.263 67.9645 124.263 66.9601C125.215 66.9601 126.099 66.9601 126.915 66.9601C127.735 66.9601 128.619 66.9601 129.567 66.9601C129.567 67.9645 129.567 68.8766 129.567 69.6964C129.567 70.5162 129.567 71.4283 129.567 72.4327C128.619 72.4327 127.735 72.4327 126.915 72.4327C126.099 72.4327 125.215 72.4327 124.263 72.4327ZM124.263 72.4327C124.263 71.4283 124.263 70.5162 124.263 69.6964C124.263 68.8766 124.263 67.9645 124.263 66.9601C125.215 66.9601 126.099 66.9601 126.915 66.9601C127.735 66.9601 128.619 66.9601 129.567 66.9601C129.567 67.9645 129.567 68.8766 129.567 69.6964C129.567 70.5162 129.567 71.4283 129.567 72.4327C128.619 72.4327 127.735 72.4327 126.915 72.4327C126.099 72.4327 125.215 72.4327 124.263 72.4327ZM124.263 72.4327C124.263 71.4283 124.263 70.5162 124.263 69.6964C124.263 68.8766 124.263 67.9645 124.263 66.9601C125.215 66.9601 126.099 66.9601 126.915 66.9601C127.735 66.9601 128.619 66.9601 129.567 66.9601C129.567 67.9645 129.567 68.8766 129.567 69.6964C129.567 70.5162 129.567 71.4283 129.567 72.4327C128.619 72.4327 127.735 72.4327 126.915 72.4327C126.099 72.4327 125.215 72.4327 124.263 72.4327ZM124.263 72.4327C124.263 71.4283 124.263 70.5162 124.263 69.6964C124.263 68.8766 124.263 67.9645 124.263 66.9601C125.215 66.9601 126.099 66.9601 126.915 66.9601C127.735 66.9601 128.619 66.9601 129.567 66.9601C129.567 67.9645 129.567 68.8766 129.567 69.6964C129.567 70.5162 129.567 71.4283 129.567 72.4327C128.619 72.4327 127.735 72.4327 126.915 72.4327C126.099 72.4327 125.215 72.4327 124.263 72.4327ZM124.263 72.4327C124.263 71.4283 124.263 70.5162 124.263 69.6964C124.263 68.8766 124.263 67.9645 124.263 66.9601C125.215 66.9601 126.099 66.9601 126.915 66.9601C127.735 66.9601 128.619 66.9601 129.567 66.9601C129.567 67.9645 129.567 68.8766 129.567 69.6964C129.567 70.5162 129.567 71.4283 129.567 72.4327C128.619 72.4327 127.735 72.4327 126.915 72.4327C126.099 72.4327 125.215 72.4327 124.263 72.4327ZM124.263 72.4327C124.263 71.4283 124.263 70.5162 124.263 69.6964C124.263 68.8766 124.263 67.9645 124.263 66.9601C125.215 66.9601 126.099 66.9601 126.915 66.9601C127.735 66.9601 128.619 66.9601 129.567 66.9601C129.567 67.9645 129.567 68.8766 129.567 69.6964C129.567 70.5162 129.567 71.4283 129.567 72.4327C128.619 72.4327 127.735 72.4327 126.915 72.4327C126.099 72.4327 125.215 72.4327 124.263 72.4327ZM128.051 72.4327C128.051 71.4283 128.051 70.5162 128.051 69.6964C128.051 68.8766 128.051 67.9645 128.051 66.9601C129.004 66.9601 129.888 66.9601 130.703 66.9601C131.524 66.9601 132.408 66.9601 133.355 66.9601C133.355 67.9645 133.355 68.8766 133.355 69.6964C133.355 70.5162 133.355 71.4283 133.355 72.4327C132.408 72.4327 131.524 72.4327 130.703 72.4327C129.888 72.4327 129.004 72.4327 128.051 72.4327ZM128.051 72.4327C128.051 71.4283 128.051 70.5162 128.051 69.6964C128.051 68.8766 128.051 67.9645 128.051 66.9601C129.004 66.9601 129.888 66.9601 130.703 66.9601C131.524 66.9601 132.408 66.9601 133.355 66.9601C133.355 67.9645 133.355 68.8766 133.355 69.6964C133.355 70.5162 133.355 71.4283 133.355 72.4327C132.408 72.4327 131.524 72.4327 130.703 72.4327C129.888 72.4327 129.004 72.4327 128.051 72.4327ZM128.051 72.4327C128.051 71.4283 128.051 70.5162 128.051 69.6964C128.051 68.8766 128.051 67.9645 128.051 66.9601C129.004 66.9601 129.888 66.9601 130.703 66.9601C131.524 66.9601 132.408 66.9601 133.355 66.9601C133.355 67.9645 133.355 68.8766 133.355 69.6964C133.355 70.5162 133.355 71.4283 133.355 72.4327C132.408 72.4327 131.524 72.4327 130.703 72.4327C129.888 72.4327 129.004 72.4327 128.051 72.4327ZM128.051 72.4327C128.051 71.4283 128.051 70.5162 128.051 69.6964C128.051 68.8766 128.051 67.9645 128.051 66.9601C129.004 66.9601 129.888 66.9601 130.703 66.9601C131.524 66.9601 132.408 66.9601 133.355 66.9601C133.355 67.9645 133.355 68.8766 133.355 69.6964C133.355 70.5162 133.355 71.4283 133.355 72.4327C132.408 72.4327 131.524 72.4327 130.703 72.4327C129.888 72.4327 129.004 72.4327 128.051 72.4327ZM128.051 72.4327C128.051 71.4283 128.051 70.5162 128.051 69.6964C128.051 68.8766 128.051 67.9645 128.051 66.9601C129.004 66.9601 129.888 66.9601 130.703 66.9601C131.524 66.9601 132.408 66.9601 133.355 66.9601C133.355 67.9645 133.355 68.8766 133.355 69.6964C133.355 70.5162 133.355 71.4283 133.355 72.4327C132.408 72.4327 131.524 72.4327 130.703 72.4327C129.888 72.4327 129.004 72.4327 128.051 72.4327ZM128.051 72.4327C128.051 71.4283 128.051 70.5162 128.051 69.6964C128.051 68.8766 128.051 67.9645 128.051 66.9601C129.004 66.9601 129.888 66.9601 130.703 66.9601C131.524 66.9601 132.408 66.9601 133.355 66.9601C133.355 67.9645 133.355 68.8766 133.355 69.6964C133.355 70.5162 133.355 71.4283 133.355 72.4327C132.408 72.4327 131.524 72.4327 130.703 72.4327C129.888 72.4327 129.004 72.4327 128.051 72.4327ZM128.051 72.4327C128.051 71.4283 128.051 70.5162 128.051 69.6964C128.051 68.8766 128.051 67.9645 128.051 66.9601C129.004 66.9601 129.888 66.9601 130.703 66.9601C131.524 66.9601 132.408 66.9601 133.355 66.9601C133.355 67.9645 133.355 68.8766 133.355 69.6964C133.355 70.5162 133.355 71.4283 133.355 72.4327C132.408 72.4327 131.524 72.4327 130.703 72.4327C129.888 72.4327 129.004 72.4327 128.051 72.4327ZM128.051 72.4327C128.051 71.4283 128.051 70.5162 128.051 69.6964C128.051 68.8766 128.051 67.9645 128.051 66.9601C129.004 66.9601 129.888 66.9601 130.703 66.9601C131.524 66.9601 132.408 66.9601 133.355 66.9601C133.355 67.9645 133.355 68.8766 133.355 69.6964C133.355 70.5162 133.355 71.4283 133.355 72.4327C132.408 72.4327 131.524 72.4327 130.703 72.4327C129.888 72.4327 129.004 72.4327 128.051 72.4327ZM128.051 72.4327C128.051 71.4283 128.051 70.5162 128.051 69.6964C128.051 68.8766 128.051 67.9645 128.051 66.9601C129.004 66.9601 129.888 66.9601 130.703 66.9601C131.524 66.9601 132.408 66.9601 133.355 66.9601C133.355 67.9645 133.355 68.8766 133.355 69.6964C133.355 70.5162 133.355 71.4283 133.355 72.4327C132.408 72.4327 131.524 72.4327 130.703 72.4327C129.888 72.4327 129.004 72.4327 128.051 72.4327ZM131.84 72.4327C131.84 71.4283 131.84 70.5162 131.84 69.6964C131.84 68.8766 131.84 67.9645 131.84 66.9601C132.792 66.9601 133.676 66.9601 134.492 66.9601C135.313 66.9601 136.197 66.9601 137.144 66.9601C137.144 67.9645 137.144 68.8766 137.144 69.6964C137.144 70.5162 137.144 71.4283 137.144 72.4327C136.197 72.4327 135.313 72.4327 134.492 72.4327C133.676 72.4327 132.792 72.4327 131.84 72.4327ZM131.84 72.4327C131.84 71.4283 131.84 70.5162 131.84 69.6964C131.84 68.8766 131.84 67.9645 131.84 66.9601C132.792 66.9601 133.676 66.9601 134.492 66.9601C135.313 66.9601 136.197 66.9601 137.144 66.9601C137.144 67.9645 137.144 68.8766 137.144 69.6964C137.144 70.5162 137.144 71.4283 137.144 72.4327C136.197 72.4327 135.313 72.4327 134.492 72.4327C133.676 72.4327 132.792 72.4327 131.84 72.4327ZM131.84 72.4327C131.84 71.4283 131.84 70.5162 131.84 69.6964C131.84 68.8766 131.84 67.9645 131.84 66.9601C132.792 66.9601 133.676 66.9601 134.492 66.9601C135.313 66.9601 136.197 66.9601 137.144 66.9601C137.144 67.9645 137.144 68.8766 137.144 69.6964C137.144 70.5162 137.144 71.4283 137.144 72.4327C136.197 72.4327 135.313 72.4327 134.492 72.4327C133.676 72.4327 132.792 72.4327 131.84 72.4327ZM131.84 72.4327C131.84 71.4283 131.84 70.5162 131.84 69.6964C131.84 68.8766 131.84 67.9645 131.84 66.9601C132.792 66.9601 133.676 66.9601 134.492 66.9601C135.313 66.9601 136.197 66.9601 137.144 66.9601C137.144 67.9645 137.144 68.8766 137.144 69.6964C137.144 70.5162 137.144 71.4283 137.144 72.4327C136.197 72.4327 135.313 72.4327 134.492 72.4327C133.676 72.4327 132.792 72.4327 131.84 72.4327ZM131.84 72.4327C131.84 71.4283 131.84 70.5162 131.84 69.6964C131.84 68.8766 131.84 67.9645 131.84 66.9601C132.792 66.9601 133.676 66.9601 134.492 66.9601C135.313 66.9601 136.197 66.9601 137.144 66.9601C137.144 67.9645 137.144 68.8766 137.144 69.6964C137.144 70.5162 137.144 71.4283 137.144 72.4327C136.197 72.4327 135.313 72.4327 134.492 72.4327C133.676 72.4327 132.792 72.4327 131.84 72.4327ZM131.84 72.4327C131.84 71.4283 131.84 70.5162 131.84 69.6964C131.84 68.8766 131.84 67.9645 131.84 66.9601C132.792 66.9601 133.676 66.9601 134.492 66.9601C135.313 66.9601 136.197 66.9601 137.144 66.9601C137.144 67.9645 137.144 68.8766 137.144 69.6964C137.144 70.5162 137.144 71.4283 137.144 72.4327C136.197 72.4327 135.313 72.4327 134.492 72.4327C133.676 72.4327 132.792 72.4327 131.84 72.4327ZM131.84 72.4327C131.84 71.4283 131.84 70.5162 131.84 69.6964C131.84 68.8766 131.84 67.9645 131.84 66.9601C132.792 66.9601 133.676 66.9601 134.492 66.9601C135.313 66.9601 136.197 66.9601 137.144 66.9601C137.144 67.9645 137.144 68.8766 137.144 69.6964C137.144 70.5162 137.144 71.4283 137.144 72.4327C136.197 72.4327 135.313 72.4327 134.492 72.4327C133.676 72.4327 132.792 72.4327 131.84 72.4327ZM131.84 72.4327C131.84 71.4283 131.84 70.5162 131.84 69.6964C131.84 68.8766 131.84 67.9645 131.84 66.9601C132.792 66.9601 133.676 66.9601 134.492 66.9601C135.313 66.9601 136.197 66.9601 137.144 66.9601C137.144 67.9645 137.144 68.8766 137.144 69.6964C137.144 70.5162 137.144 71.4283 137.144 72.4327C136.197 72.4327 135.313 72.4327 134.492 72.4327C133.676 72.4327 132.792 72.4327 131.84 72.4327ZM131.84 72.4327C131.84 71.4283 131.84 70.5162 131.84 69.6964C131.84 68.8766 131.84 67.9645 131.84 66.9601C132.792 66.9601 133.676 66.9601 134.492 66.9601C135.313 66.9601 136.197 66.9601 137.144 66.9601C137.144 67.9645 137.144 68.8766 137.144 69.6964C137.144 70.5162 137.144 71.4283 137.144 72.4327C136.197 72.4327 135.313 72.4327 134.492 72.4327C133.676 72.4327 132.792 72.4327 131.84 72.4327ZM135.628 72.4327C135.628 71.4283 135.628 70.5162 135.628 69.6964C135.628 68.8766 135.628 67.9645 135.628 66.9601C136.581 66.9601 137.465 66.9601 138.28 66.9601C139.101 66.9601 139.985 66.9601 140.932 66.9601C140.932 67.9645 140.932 68.8766 140.932 69.6964C140.932 70.5162 140.932 71.4283 140.932 72.4327C139.985 72.4327 139.101 72.4327 138.28 72.4327C137.465 72.4327 136.581 72.4327 135.628 72.4327ZM135.628 72.4327C135.628 71.4283 135.628 70.5162 135.628 69.6964C135.628 68.8766 135.628 67.9645 135.628 66.9601C136.581 66.9601 137.465 66.9601 138.28 66.9601C139.101 66.9601 139.985 66.9601 140.932 66.9601C140.932 67.9645 140.932 68.8766 140.932 69.6964C140.932 70.5162 140.932 71.4283 140.932 72.4327C139.985 72.4327 139.101 72.4327 138.28 72.4327C137.465 72.4327 136.581 72.4327 135.628 72.4327ZM135.628 72.4327C135.628 71.4283 135.628 70.5162 135.628 69.6964C135.628 68.8766 135.628 67.9645 135.628 66.9601C136.581 66.9601 137.465 66.9601 138.28 66.9601C139.101 66.9601 139.985 66.9601 140.932 66.9601C140.932 67.9645 140.932 68.8766 140.932 69.6964C140.932 70.5162 140.932 71.4283 140.932 72.4327C139.985 72.4327 139.101 72.4327 138.28 72.4327C137.465 72.4327 136.581 72.4327 135.628 72.4327ZM135.628 72.4327C135.628 71.4283 135.628 70.5162 135.628 69.6964C135.628 68.8766 135.628 67.9645 135.628 66.9601C136.581 66.9601 137.465 66.9601 138.28 66.9601C139.101 66.9601 139.985 66.9601 140.932 66.9601C140.932 67.9645 140.932 68.8766 140.932 69.6964C140.932 70.5162 140.932 71.4283 140.932 72.4327C139.985 72.4327 139.101 72.4327 138.28 72.4327C137.465 72.4327 136.581 72.4327 135.628 72.4327ZM135.628 72.4327C135.628 71.4283 135.628 70.5162 135.628 69.6964C135.628 68.8766 135.628 67.9645 135.628 66.9601C136.581 66.9601 137.465 66.9601 138.28 66.9601C139.101 66.9601 139.985 66.9601 140.932 66.9601C140.932 67.9645 140.932 68.8766 140.932 69.6964C140.932 70.5162 140.932 71.4283 140.932 72.4327C139.985 72.4327 139.101 72.4327 138.28 72.4327C137.465 72.4327 136.581 72.4327 135.628 72.4327ZM135.628 72.4327C135.628 71.4283 135.628 70.5162 135.628 69.6964C135.628 68.8766 135.628 67.9645 135.628 66.9601C136.581 66.9601 137.465 66.9601 138.28 66.9601C139.101 66.9601 139.985 66.9601 140.932 66.9601C140.932 67.9645 140.932 68.8766 140.932 69.6964C140.932 70.5162 140.932 71.4283 140.932 72.4327C139.985 72.4327 139.101 72.4327 138.28 72.4327C137.465 72.4327 136.581 72.4327 135.628 72.4327ZM135.628 72.4327C135.628 71.4283 135.628 70.5162 135.628 69.6964C135.628 68.8766 135.628 67.9645 135.628 66.9601C136.581 66.9601 137.465 66.9601 138.28 66.9601C139.101 66.9601 139.985 66.9601 140.932 66.9601C140.932 67.9645 140.932 68.8766 140.932 69.6964C140.932 70.5162 140.932 71.4283 140.932 72.4327C139.985 72.4327 139.101 72.4327 138.28 72.4327C137.465 72.4327 136.581 72.4327 135.628 72.4327ZM135.628 72.4327C135.628 71.4283 135.628 70.5162 135.628 69.6964C135.628 68.8766 135.628 67.9645 135.628 66.9601C136.581 66.9601 137.465 66.9601 138.28 66.9601C139.101 66.9601 139.985 66.9601 140.932 66.9601C140.932 67.9645 140.932 68.8766 140.932 69.6964C140.932 70.5162 140.932 71.4283 140.932 72.4327C139.985 72.4327 139.101 72.4327 138.28 72.4327C137.465 72.4327 136.581 72.4327 135.628 72.4327ZM135.628 72.4327C135.628 71.4283 135.628 70.5162 135.628 69.6964C135.628 68.8766 135.628 67.9645 135.628 66.9601C136.581 66.9601 137.465 66.9601 138.28 66.9601C139.101 66.9601 139.985 66.9601 140.932 66.9601C140.932 67.9645 140.932 68.8766 140.932 69.6964C140.932 70.5162 140.932 71.4283 140.932 72.4327C139.985 72.4327 139.101 72.4327 138.28 72.4327C137.465 72.4327 136.581 72.4327 135.628 72.4327ZM120.474 68.5237C120.474 67.5193 120.474 66.6072 120.474 65.7874C120.474 64.9676 120.474 64.0555 120.474 63.051C121.426 63.051 122.31 63.051 123.126 63.051C123.947 63.051 124.831 63.051 125.778 63.051C125.778 64.0555 125.778 64.9676 125.778 65.7874C125.778 66.6072 125.778 67.5193 125.778 68.5237C124.831 68.5237 123.947 68.5237 123.126 68.5237C122.31 68.5237 121.426 68.5237 120.474 68.5237ZM120.474 68.5237C120.474 67.5193 120.474 66.6072 120.474 65.7874C120.474 64.9676 120.474 64.0555 120.474 63.051C121.426 63.051 122.31 63.051 123.126 63.051C123.947 63.051 124.831 63.051 125.778 63.051C125.778 64.0555 125.778 64.9676 125.778 65.7874C125.778 66.6072 125.778 67.5193 125.778 68.5237C124.831 68.5237 123.947 68.5237 123.126 68.5237C122.31 68.5237 121.426 68.5237 120.474 68.5237ZM120.474 68.5237C120.474 67.5193 120.474 66.6072 120.474 65.7874C120.474 64.9676 120.474 64.0555 120.474 63.051C121.426 63.051 122.31 63.051 123.126 63.051C123.947 63.051 124.831 63.051 125.778 63.051C125.778 64.0555 125.778 64.9676 125.778 65.7874C125.778 66.6072 125.778 67.5193 125.778 68.5237C124.831 68.5237 123.947 68.5237 123.126 68.5237C122.31 68.5237 121.426 68.5237 120.474 68.5237ZM120.474 68.5237C120.474 67.5193 120.474 66.6072 120.474 65.7874C120.474 64.9676 120.474 64.0555 120.474 63.051C121.426 63.051 122.31 63.051 123.126 63.051C123.947 63.051 124.831 63.051 125.778 63.051C125.778 64.0555 125.778 64.9676 125.778 65.7874C125.778 66.6072 125.778 67.5193 125.778 68.5237C124.831 68.5237 123.947 68.5237 123.126 68.5237C122.31 68.5237 121.426 68.5237 120.474 68.5237ZM120.474 68.5237C120.474 67.5193 120.474 66.6072 120.474 65.7874C120.474 64.9676 120.474 64.0555 120.474 63.051C121.426 63.051 122.31 63.051 123.126 63.051C123.947 63.051 124.831 63.051 125.778 63.051C125.778 64.0555 125.778 64.9676 125.778 65.7874C125.778 66.6072 125.778 67.5193 125.778 68.5237C124.831 68.5237 123.947 68.5237 123.126 68.5237C122.31 68.5237 121.426 68.5237 120.474 68.5237ZM120.474 68.5237C120.474 67.5193 120.474 66.6072 120.474 65.7874C120.474 64.9676 120.474 64.0555 120.474 63.051C121.426 63.051 122.31 63.051 123.126 63.051C123.947 63.051 124.831 63.051 125.778 63.051C125.778 64.0555 125.778 64.9676 125.778 65.7874C125.778 66.6072 125.778 67.5193 125.778 68.5237C124.831 68.5237 123.947 68.5237 123.126 68.5237C122.31 68.5237 121.426 68.5237 120.474 68.5237ZM120.474 68.5237C120.474 67.5193 120.474 66.6072 120.474 65.7874C120.474 64.9676 120.474 64.0555 120.474 63.051C121.426 63.051 122.31 63.051 123.126 63.051C123.947 63.051 124.831 63.051 125.778 63.051C125.778 64.0555 125.778 64.9676 125.778 65.7874C125.778 66.6072 125.778 67.5193 125.778 68.5237C124.831 68.5237 123.947 68.5237 123.126 68.5237C122.31 68.5237 121.426 68.5237 120.474 68.5237ZM120.474 68.5237C120.474 67.5193 120.474 66.6072 120.474 65.7874C120.474 64.9676 120.474 64.0555 120.474 63.051C121.426 63.051 122.31 63.051 123.126 63.051C123.947 63.051 124.831 63.051 125.778 63.051C125.778 64.0555 125.778 64.9676 125.778 65.7874C125.778 66.6072 125.778 67.5193 125.778 68.5237C124.831 68.5237 123.947 68.5237 123.126 68.5237C122.31 68.5237 121.426 68.5237 120.474 68.5237ZM120.474 68.5237C120.474 67.5193 120.474 66.6072 120.474 65.7874C120.474 64.9676 120.474 64.0555 120.474 63.051C121.426 63.051 122.31 63.051 123.126 63.051C123.947 63.051 124.831 63.051 125.778 63.051C125.778 64.0555 125.778 64.9676 125.778 65.7874C125.778 66.6072 125.778 67.5193 125.778 68.5237C124.831 68.5237 123.947 68.5237 123.126 68.5237C122.31 68.5237 121.426 68.5237 120.474 68.5237ZM135.628 68.5237C135.628 67.5193 135.628 66.6072 135.628 65.7874C135.628 64.9676 135.628 64.0555 135.628 63.051C136.581 63.051 137.465 63.051 138.28 63.051C139.101 63.051 139.985 63.051 140.932 63.051C140.932 64.0555 140.932 64.9676 140.932 65.7874C140.932 66.6072 140.932 67.5193 140.932 68.5237C139.985 68.5237 139.101 68.5237 138.28 68.5237C137.465 68.5237 136.581 68.5237 135.628 68.5237ZM135.628 68.5237C135.628 67.5193 135.628 66.6072 135.628 65.7874C135.628 64.9676 135.628 64.0555 135.628 63.051C136.581 63.051 137.465 63.051 138.28 63.051C139.101 63.051 139.985 63.051 140.932 63.051C140.932 64.0555 140.932 64.9676 140.932 65.7874C140.932 66.6072 140.932 67.5193 140.932 68.5237C139.985 68.5237 139.101 68.5237 138.28 68.5237C137.465 68.5237 136.581 68.5237 135.628 68.5237ZM135.628 68.5237C135.628 67.5193 135.628 66.6072 135.628 65.7874C135.628 64.9676 135.628 64.0555 135.628 63.051C136.581 63.051 137.465 63.051 138.28 63.051C139.101 63.051 139.985 63.051 140.932 63.051C140.932 64.0555 140.932 64.9676 140.932 65.7874C140.932 66.6072 140.932 67.5193 140.932 68.5237C139.985 68.5237 139.101 68.5237 138.28 68.5237C137.465 68.5237 136.581 68.5237 135.628 68.5237ZM135.628 68.5237C135.628 67.5193 135.628 66.6072 135.628 65.7874C135.628 64.9676 135.628 64.0555 135.628 63.051C136.581 63.051 137.465 63.051 138.28 63.051C139.101 63.051 139.985 63.051 140.932 63.051C140.932 64.0555 140.932 64.9676 140.932 65.7874C140.932 66.6072 140.932 67.5193 140.932 68.5237C139.985 68.5237 139.101 68.5237 138.28 68.5237C137.465 68.5237 136.581 68.5237 135.628 68.5237ZM135.628 68.5237C135.628 67.5193 135.628 66.6072 135.628 65.7874C135.628 64.9676 135.628 64.0555 135.628 63.051C136.581 63.051 137.465 63.051 138.28 63.051C139.101 63.051 139.985 63.051 140.932 63.051C140.932 64.0555 140.932 64.9676 140.932 65.7874C140.932 66.6072 140.932 67.5193 140.932 68.5237C139.985 68.5237 139.101 68.5237 138.28 68.5237C137.465 68.5237 136.581 68.5237 135.628 68.5237ZM135.628 68.5237C135.628 67.5193 135.628 66.6072 135.628 65.7874C135.628 64.9676 135.628 64.0555 135.628 63.051C136.581 63.051 137.465 63.051 138.28 63.051C139.101 63.051 139.985 63.051 140.932 63.051C140.932 64.0555 140.932 64.9676 140.932 65.7874C140.932 66.6072 140.932 67.5193 140.932 68.5237C139.985 68.5237 139.101 68.5237 138.28 68.5237C137.465 68.5237 136.581 68.5237 135.628 68.5237ZM135.628 68.5237C135.628 67.5193 135.628 66.6072 135.628 65.7874C135.628 64.9676 135.628 64.0555 135.628 63.051C136.581 63.051 137.465 63.051 138.28 63.051C139.101 63.051 139.985 63.051 140.932 63.051C140.932 64.0555 140.932 64.9676 140.932 65.7874C140.932 66.6072 140.932 67.5193 140.932 68.5237C139.985 68.5237 139.101 68.5237 138.28 68.5237C137.465 68.5237 136.581 68.5237 135.628 68.5237ZM135.628 68.5237C135.628 67.5193 135.628 66.6072 135.628 65.7874C135.628 64.9676 135.628 64.0555 135.628 63.051C136.581 63.051 137.465 63.051 138.28 63.051C139.101 63.051 139.985 63.051 140.932 63.051C140.932 64.0555 140.932 64.9676 140.932 65.7874C140.932 66.6072 140.932 67.5193 140.932 68.5237C139.985 68.5237 139.101 68.5237 138.28 68.5237C137.465 68.5237 136.581 68.5237 135.628 68.5237ZM135.628 68.5237C135.628 67.5193 135.628 66.6072 135.628 65.7874C135.628 64.9676 135.628 64.0555 135.628 63.051C136.581 63.051 137.465 63.051 138.28 63.051C139.101 63.051 139.985 63.051 140.932 63.051C140.932 64.0555 140.932 64.9676 140.932 65.7874C140.932 66.6072 140.932 67.5193 140.932 68.5237C139.985 68.5237 139.101 68.5237 138.28 68.5237C137.465 68.5237 136.581 68.5237 135.628 68.5237ZM120.474 64.6147C120.474 63.6103 120.474 62.6981 120.474 61.8783C120.474 61.0585 120.474 60.1464 120.474 59.142C121.426 59.142 122.31 59.142 123.126 59.142C123.947 59.142 124.831 59.142 125.778 59.142C125.778 60.1464 125.778 61.0585 125.778 61.8783C125.778 62.6981 125.778 63.6103 125.778 64.6147C124.831 64.6147 123.947 64.6147 123.126 64.6147C122.31 64.6147 121.426 64.6147 120.474 64.6147ZM120.474 64.6147C120.474 63.6103 120.474 62.6981 120.474 61.8783C120.474 61.0585 120.474 60.1464 120.474 59.142C121.426 59.142 122.31 59.142 123.126 59.142C123.947 59.142 124.831 59.142 125.778 59.142C125.778 60.1464 125.778 61.0585 125.778 61.8783C125.778 62.6981 125.778 63.6103 125.778 64.6147C124.831 64.6147 123.947 64.6147 123.126 64.6147C122.31 64.6147 121.426 64.6147 120.474 64.6147ZM120.474 64.6147C120.474 63.6103 120.474 62.6981 120.474 61.8783C120.474 61.0585 120.474 60.1464 120.474 59.142C121.426 59.142 122.31 59.142 123.126 59.142C123.947 59.142 124.831 59.142 125.778 59.142C125.778 60.1464 125.778 61.0585 125.778 61.8783C125.778 62.6981 125.778 63.6103 125.778 64.6147C124.831 64.6147 123.947 64.6147 123.126 64.6147C122.31 64.6147 121.426 64.6147 120.474 64.6147ZM120.474 64.6147C120.474 63.6103 120.474 62.6981 120.474 61.8783C120.474 61.0585 120.474 60.1464 120.474 59.142C121.426 59.142 122.31 59.142 123.126 59.142C123.947 59.142 124.831 59.142 125.778 59.142C125.778 60.1464 125.778 61.0585 125.778 61.8783C125.778 62.6981 125.778 63.6103 125.778 64.6147C124.831 64.6147 123.947 64.6147 123.126 64.6147C122.31 64.6147 121.426 64.6147 120.474 64.6147ZM120.474 64.6147C120.474 63.6103 120.474 62.6981 120.474 61.8783C120.474 61.0585 120.474 60.1464 120.474 59.142C121.426 59.142 122.31 59.142 123.126 59.142C123.947 59.142 124.831 59.142 125.778 59.142C125.778 60.1464 125.778 61.0585 125.778 61.8783C125.778 62.6981 125.778 63.6103 125.778 64.6147C124.831 64.6147 123.947 64.6147 123.126 64.6147C122.31 64.6147 121.426 64.6147 120.474 64.6147ZM120.474 64.6147C120.474 63.6103 120.474 62.6981 120.474 61.8783C120.474 61.0585 120.474 60.1464 120.474 59.142C121.426 59.142 122.31 59.142 123.126 59.142C123.947 59.142 124.831 59.142 125.778 59.142C125.778 60.1464 125.778 61.0585 125.778 61.8783C125.778 62.6981 125.778 63.6103 125.778 64.6147C124.831 64.6147 123.947 64.6147 123.126 64.6147C122.31 64.6147 121.426 64.6147 120.474 64.6147ZM120.474 64.6147C120.474 63.6103 120.474 62.6981 120.474 61.8783C120.474 61.0585 120.474 60.1464 120.474 59.142C121.426 59.142 122.31 59.142 123.126 59.142C123.947 59.142 124.831 59.142 125.778 59.142C125.778 60.1464 125.778 61.0585 125.778 61.8783C125.778 62.6981 125.778 63.6103 125.778 64.6147C124.831 64.6147 123.947 64.6147 123.126 64.6147C122.31 64.6147 121.426 64.6147 120.474 64.6147ZM120.474 64.6147C120.474 63.6103 120.474 62.6981 120.474 61.8783C120.474 61.0585 120.474 60.1464 120.474 59.142C121.426 59.142 122.31 59.142 123.126 59.142C123.947 59.142 124.831 59.142 125.778 59.142C125.778 60.1464 125.778 61.0585 125.778 61.8783C125.778 62.6981 125.778 63.6103 125.778 64.6147C124.831 64.6147 123.947 64.6147 123.126 64.6147C122.31 64.6147 121.426 64.6147 120.474 64.6147ZM120.474 64.6147C120.474 63.6103 120.474 62.6981 120.474 61.8783C120.474 61.0585 120.474 60.1464 120.474 59.142C121.426 59.142 122.31 59.142 123.126 59.142C123.947 59.142 124.831 59.142 125.778 59.142C125.778 60.1464 125.778 61.0585 125.778 61.8783C125.778 62.6981 125.778 63.6103 125.778 64.6147C124.831 64.6147 123.947 64.6147 123.126 64.6147C122.31 64.6147 121.426 64.6147 120.474 64.6147ZM135.628 64.6147C135.628 63.6103 135.628 62.6981 135.628 61.8783C135.628 61.0585 135.628 60.1464 135.628 59.142C136.581 59.142 137.465 59.142 138.28 59.142C139.101 59.142 139.985 59.142 140.932 59.142C140.932 60.1464 140.932 61.0585 140.932 61.8783C140.932 62.6981 140.932 63.6103 140.932 64.6147C139.985 64.6147 139.101 64.6147 138.28 64.6147C137.465 64.6147 136.581 64.6147 135.628 64.6147ZM135.628 64.6147C135.628 63.6103 135.628 62.6981 135.628 61.8783C135.628 61.0585 135.628 60.1464 135.628 59.142C136.581 59.142 137.465 59.142 138.28 59.142C139.101 59.142 139.985 59.142 140.932 59.142C140.932 60.1464 140.932 61.0585 140.932 61.8783C140.932 62.6981 140.932 63.6103 140.932 64.6147C139.985 64.6147 139.101 64.6147 138.28 64.6147C137.465 64.6147 136.581 64.6147 135.628 64.6147ZM135.628 64.6147C135.628 63.6103 135.628 62.6981 135.628 61.8783C135.628 61.0585 135.628 60.1464 135.628 59.142C136.581 59.142 137.465 59.142 138.28 59.142C139.101 59.142 139.985 59.142 140.932 59.142C140.932 60.1464 140.932 61.0585 140.932 61.8783C140.932 62.6981 140.932 63.6103 140.932 64.6147C139.985 64.6147 139.101 64.6147 138.28 64.6147C137.465 64.6147 136.581 64.6147 135.628 64.6147ZM135.628 64.6147C135.628 63.6103 135.628 62.6981 135.628 61.8783C135.628 61.0585 135.628 60.1464 135.628 59.142C136.581 59.142 137.465 59.142 138.28 59.142C139.101 59.142 139.985 59.142 140.932 59.142C140.932 60.1464 140.932 61.0585 140.932 61.8783C140.932 62.6981 140.932 63.6103 140.932 64.6147C139.985 64.6147 139.101 64.6147 138.28 64.6147C137.465 64.6147 136.581 64.6147 135.628 64.6147ZM135.628 64.6147C135.628 63.6103 135.628 62.6981 135.628 61.8783C135.628 61.0585 135.628 60.1464 135.628 59.142C136.581 59.142 137.465 59.142 138.28 59.142C139.101 59.142 139.985 59.142 140.932 59.142C140.932 60.1464 140.932 61.0585 140.932 61.8783C140.932 62.6981 140.932 63.6103 140.932 64.6147C139.985 64.6147 139.101 64.6147 138.28 64.6147C137.465 64.6147 136.581 64.6147 135.628 64.6147ZM135.628 64.6147C135.628 63.6103 135.628 62.6981 135.628 61.8783C135.628 61.0585 135.628 60.1464 135.628 59.142C136.581 59.142 137.465 59.142 138.28 59.142C139.101 59.142 139.985 59.142 140.932 59.142C140.932 60.1464 140.932 61.0585 140.932 61.8783C140.932 62.6981 140.932 63.6103 140.932 64.6147C139.985 64.6147 139.101 64.6147 138.28 64.6147C137.465 64.6147 136.581 64.6147 135.628 64.6147ZM135.628 64.6147C135.628 63.6103 135.628 62.6981 135.628 61.8783C135.628 61.0585 135.628 60.1464 135.628 59.142C136.581 59.142 137.465 59.142 138.28 59.142C139.101 59.142 139.985 59.142 140.932 59.142C140.932 60.1464 140.932 61.0585 140.932 61.8783C140.932 62.6981 140.932 63.6103 140.932 64.6147C139.985 64.6147 139.101 64.6147 138.28 64.6147C137.465 64.6147 136.581 64.6147 135.628 64.6147ZM135.628 64.6147C135.628 63.6103 135.628 62.6981 135.628 61.8783C135.628 61.0585 135.628 60.1464 135.628 59.142C136.581 59.142 137.465 59.142 138.28 59.142C139.101 59.142 139.985 59.142 140.932 59.142C140.932 60.1464 140.932 61.0585 140.932 61.8783C140.932 62.6981 140.932 63.6103 140.932 64.6147C139.985 64.6147 139.101 64.6147 138.28 64.6147C137.465 64.6147 136.581 64.6147 135.628 64.6147ZM135.628 64.6147C135.628 63.6103 135.628 62.6981 135.628 61.8783C135.628 61.0585 135.628 60.1464 135.628 59.142C136.581 59.142 137.465 59.142 138.28 59.142C139.101 59.142 139.985 59.142 140.932 59.142C140.932 60.1464 140.932 61.0585 140.932 61.8783C140.932 62.6981 140.932 63.6103 140.932 64.6147C139.985 64.6147 139.101 64.6147 138.28 64.6147C137.465 64.6147 136.581 64.6147 135.628 64.6147ZM120.474 60.7056C120.474 59.7012 120.474 58.7891 120.474 57.9693C120.474 57.1495 120.474 56.2374 120.474 55.233C121.426 55.233 122.31 55.233 123.126 55.233C123.947 55.233 124.831 55.233 125.778 55.233C125.778 56.2374 125.778 57.1495 125.778 57.9693C125.778 58.7891 125.778 59.7012 125.778 60.7056C124.831 60.7056 123.947 60.7056 123.126 60.7056C122.31 60.7056 121.426 60.7056 120.474 60.7056ZM120.474 60.7056C120.474 59.7012 120.474 58.7891 120.474 57.9693C120.474 57.1495 120.474 56.2374 120.474 55.233C121.426 55.233 122.31 55.233 123.126 55.233C123.947 55.233 124.831 55.233 125.778 55.233C125.778 56.2374 125.778 57.1495 125.778 57.9693C125.778 58.7891 125.778 59.7012 125.778 60.7056C124.831 60.7056 123.947 60.7056 123.126 60.7056C122.31 60.7056 121.426 60.7056 120.474 60.7056ZM120.474 60.7056C120.474 59.7012 120.474 58.7891 120.474 57.9693C120.474 57.1495 120.474 56.2374 120.474 55.233C121.426 55.233 122.31 55.233 123.126 55.233C123.947 55.233 124.831 55.233 125.778 55.233C125.778 56.2374 125.778 57.1495 125.778 57.9693C125.778 58.7891 125.778 59.7012 125.778 60.7056C124.831 60.7056 123.947 60.7056 123.126 60.7056C122.31 60.7056 121.426 60.7056 120.474 60.7056ZM120.474 60.7056C120.474 59.7012 120.474 58.7891 120.474 57.9693C120.474 57.1495 120.474 56.2374 120.474 55.233C121.426 55.233 122.31 55.233 123.126 55.233C123.947 55.233 124.831 55.233 125.778 55.233C125.778 56.2374 125.778 57.1495 125.778 57.9693C125.778 58.7891 125.778 59.7012 125.778 60.7056C124.831 60.7056 123.947 60.7056 123.126 60.7056C122.31 60.7056 121.426 60.7056 120.474 60.7056ZM120.474 60.7056C120.474 59.7012 120.474 58.7891 120.474 57.9693C120.474 57.1495 120.474 56.2374 120.474 55.233C121.426 55.233 122.31 55.233 123.126 55.233C123.947 55.233 124.831 55.233 125.778 55.233C125.778 56.2374 125.778 57.1495 125.778 57.9693C125.778 58.7891 125.778 59.7012 125.778 60.7056C124.831 60.7056 123.947 60.7056 123.126 60.7056C122.31 60.7056 121.426 60.7056 120.474 60.7056ZM120.474 60.7056C120.474 59.7012 120.474 58.7891 120.474 57.9693C120.474 57.1495 120.474 56.2374 120.474 55.233C121.426 55.233 122.31 55.233 123.126 55.233C123.947 55.233 124.831 55.233 125.778 55.233C125.778 56.2374 125.778 57.1495 125.778 57.9693C125.778 58.7891 125.778 59.7012 125.778 60.7056C124.831 60.7056 123.947 60.7056 123.126 60.7056C122.31 60.7056 121.426 60.7056 120.474 60.7056ZM120.474 60.7056C120.474 59.7012 120.474 58.7891 120.474 57.9693C120.474 57.1495 120.474 56.2374 120.474 55.233C121.426 55.233 122.31 55.233 123.126 55.233C123.947 55.233 124.831 55.233 125.778 55.233C125.778 56.2374 125.778 57.1495 125.778 57.9693C125.778 58.7891 125.778 59.7012 125.778 60.7056C124.831 60.7056 123.947 60.7056 123.126 60.7056C122.31 60.7056 121.426 60.7056 120.474 60.7056ZM120.474 60.7056C120.474 59.7012 120.474 58.7891 120.474 57.9693C120.474 57.1495 120.474 56.2374 120.474 55.233C121.426 55.233 122.31 55.233 123.126 55.233C123.947 55.233 124.831 55.233 125.778 55.233C125.778 56.2374 125.778 57.1495 125.778 57.9693C125.778 58.7891 125.778 59.7012 125.778 60.7056C124.831 60.7056 123.947 60.7056 123.126 60.7056C122.31 60.7056 121.426 60.7056 120.474 60.7056ZM120.474 60.7056C120.474 59.7012 120.474 58.7891 120.474 57.9693C120.474 57.1495 120.474 56.2374 120.474 55.233C121.426 55.233 122.31 55.233 123.126 55.233C123.947 55.233 124.831 55.233 125.778 55.233C125.778 56.2374 125.778 57.1495 125.778 57.9693C125.778 58.7891 125.778 59.7012 125.778 60.7056C124.831 60.7056 123.947 60.7056 123.126 60.7056C122.31 60.7056 121.426 60.7056 120.474 60.7056ZM135.628 60.7056C135.628 59.7012 135.628 58.7891 135.628 57.9693C135.628 57.1495 135.628 56.2374 135.628 55.233C136.581 55.233 137.465 55.233 138.28 55.233C139.101 55.233 139.985 55.233 140.932 55.233C140.932 56.2374 140.932 57.1495 140.932 57.9693C140.932 58.7891 140.932 59.7012 140.932 60.7056C139.985 60.7056 139.101 60.7056 138.28 60.7056C137.465 60.7056 136.581 60.7056 135.628 60.7056ZM135.628 60.7056C135.628 59.7012 135.628 58.7891 135.628 57.9693C135.628 57.1495 135.628 56.2374 135.628 55.233C136.581 55.233 137.465 55.233 138.28 55.233C139.101 55.233 139.985 55.233 140.932 55.233C140.932 56.2374 140.932 57.1495 140.932 57.9693C140.932 58.7891 140.932 59.7012 140.932 60.7056C139.985 60.7056 139.101 60.7056 138.28 60.7056C137.465 60.7056 136.581 60.7056 135.628 60.7056ZM135.628 60.7056C135.628 59.7012 135.628 58.7891 135.628 57.9693C135.628 57.1495 135.628 56.2374 135.628 55.233C136.581 55.233 137.465 55.233 138.28 55.233C139.101 55.233 139.985 55.233 140.932 55.233C140.932 56.2374 140.932 57.1495 140.932 57.9693C140.932 58.7891 140.932 59.7012 140.932 60.7056C139.985 60.7056 139.101 60.7056 138.28 60.7056C137.465 60.7056 136.581 60.7056 135.628 60.7056ZM135.628 60.7056C135.628 59.7012 135.628 58.7891 135.628 57.9693C135.628 57.1495 135.628 56.2374 135.628 55.233C136.581 55.233 137.465 55.233 138.28 55.233C139.101 55.233 139.985 55.233 140.932 55.233C140.932 56.2374 140.932 57.1495 140.932 57.9693C140.932 58.7891 140.932 59.7012 140.932 60.7056C139.985 60.7056 139.101 60.7056 138.28 60.7056C137.465 60.7056 136.581 60.7056 135.628 60.7056ZM135.628 60.7056C135.628 59.7012 135.628 58.7891 135.628 57.9693C135.628 57.1495 135.628 56.2374 135.628 55.233C136.581 55.233 137.465 55.233 138.28 55.233C139.101 55.233 139.985 55.233 140.932 55.233C140.932 56.2374 140.932 57.1495 140.932 57.9693C140.932 58.7891 140.932 59.7012 140.932 60.7056C139.985 60.7056 139.101 60.7056 138.28 60.7056C137.465 60.7056 136.581 60.7056 135.628 60.7056ZM135.628 60.7056C135.628 59.7012 135.628 58.7891 135.628 57.9693C135.628 57.1495 135.628 56.2374 135.628 55.233C136.581 55.233 137.465 55.233 138.28 55.233C139.101 55.233 139.985 55.233 140.932 55.233C140.932 56.2374 140.932 57.1495 140.932 57.9693C140.932 58.7891 140.932 59.7012 140.932 60.7056C139.985 60.7056 139.101 60.7056 138.28 60.7056C137.465 60.7056 136.581 60.7056 135.628 60.7056ZM135.628 60.7056C135.628 59.7012 135.628 58.7891 135.628 57.9693C135.628 57.1495 135.628 56.2374 135.628 55.233C136.581 55.233 137.465 55.233 138.28 55.233C139.101 55.233 139.985 55.233 140.932 55.233C140.932 56.2374 140.932 57.1495 140.932 57.9693C140.932 58.7891 140.932 59.7012 140.932 60.7056C139.985 60.7056 139.101 60.7056 138.28 60.7056C137.465 60.7056 136.581 60.7056 135.628 60.7056ZM135.628 60.7056C135.628 59.7012 135.628 58.7891 135.628 57.9693C135.628 57.1495 135.628 56.2374 135.628 55.233C136.581 55.233 137.465 55.233 138.28 55.233C139.101 55.233 139.985 55.233 140.932 55.233C140.932 56.2374 140.932 57.1495 140.932 57.9693C140.932 58.7891 140.932 59.7012 140.932 60.7056C139.985 60.7056 139.101 60.7056 138.28 60.7056C137.465 60.7056 136.581 60.7056 135.628 60.7056ZM135.628 60.7056C135.628 59.7012 135.628 58.7891 135.628 57.9693C135.628 57.1495 135.628 56.2374 135.628 55.233C136.581 55.233 137.465 55.233 138.28 55.233C139.101 55.233 139.985 55.233 140.932 55.233C140.932 56.2374 140.932 57.1495 140.932 57.9693C140.932 58.7891 140.932 59.7012 140.932 60.7056C139.985 60.7056 139.101 60.7056 138.28 60.7056C137.465 60.7056 136.581 60.7056 135.628 60.7056ZM120.474 56.7966C120.474 55.7922 120.474 54.8801 120.474 54.0603C120.474 53.2404 120.474 52.3283 120.474 51.3239C121.426 51.3239 122.31 51.3239 123.126 51.3239C123.947 51.3239 124.831 51.3239 125.778 51.3239C125.778 52.3283 125.778 53.2404 125.778 54.0603C125.778 54.8801 125.778 55.7922 125.778 56.7966C124.831 56.7966 123.947 56.7966 123.126 56.7966C122.31 56.7966 121.426 56.7966 120.474 56.7966ZM120.474 56.7966C120.474 55.7922 120.474 54.8801 120.474 54.0603C120.474 53.2404 120.474 52.3283 120.474 51.3239C121.426 51.3239 122.31 51.3239 123.126 51.3239C123.947 51.3239 124.831 51.3239 125.778 51.3239C125.778 52.3283 125.778 53.2404 125.778 54.0603C125.778 54.8801 125.778 55.7922 125.778 56.7966C124.831 56.7966 123.947 56.7966 123.126 56.7966C122.31 56.7966 121.426 56.7966 120.474 56.7966ZM120.474 56.7966C120.474 55.7922 120.474 54.8801 120.474 54.0603C120.474 53.2404 120.474 52.3283 120.474 51.3239C121.426 51.3239 122.31 51.3239 123.126 51.3239C123.947 51.3239 124.831 51.3239 125.778 51.3239C125.778 52.3283 125.778 53.2404 125.778 54.0603C125.778 54.8801 125.778 55.7922 125.778 56.7966C124.831 56.7966 123.947 56.7966 123.126 56.7966C122.31 56.7966 121.426 56.7966 120.474 56.7966ZM120.474 56.7966C120.474 55.7922 120.474 54.8801 120.474 54.0603C120.474 53.2404 120.474 52.3283 120.474 51.3239C121.426 51.3239 122.31 51.3239 123.126 51.3239C123.947 51.3239 124.831 51.3239 125.778 51.3239C125.778 52.3283 125.778 53.2404 125.778 54.0603C125.778 54.8801 125.778 55.7922 125.778 56.7966C124.831 56.7966 123.947 56.7966 123.126 56.7966C122.31 56.7966 121.426 56.7966 120.474 56.7966ZM120.474 56.7966C120.474 55.7922 120.474 54.8801 120.474 54.0603C120.474 53.2404 120.474 52.3283 120.474 51.3239C121.426 51.3239 122.31 51.3239 123.126 51.3239C123.947 51.3239 124.831 51.3239 125.778 51.3239C125.778 52.3283 125.778 53.2404 125.778 54.0603C125.778 54.8801 125.778 55.7922 125.778 56.7966C124.831 56.7966 123.947 56.7966 123.126 56.7966C122.31 56.7966 121.426 56.7966 120.474 56.7966ZM120.474 56.7966C120.474 55.7922 120.474 54.8801 120.474 54.0603C120.474 53.2404 120.474 52.3283 120.474 51.3239C121.426 51.3239 122.31 51.3239 123.126 51.3239C123.947 51.3239 124.831 51.3239 125.778 51.3239C125.778 52.3283 125.778 53.2404 125.778 54.0603C125.778 54.8801 125.778 55.7922 125.778 56.7966C124.831 56.7966 123.947 56.7966 123.126 56.7966C122.31 56.7966 121.426 56.7966 120.474 56.7966ZM120.474 56.7966C120.474 55.7922 120.474 54.8801 120.474 54.0603C120.474 53.2404 120.474 52.3283 120.474 51.3239C121.426 51.3239 122.31 51.3239 123.126 51.3239C123.947 51.3239 124.831 51.3239 125.778 51.3239C125.778 52.3283 125.778 53.2404 125.778 54.0603C125.778 54.8801 125.778 55.7922 125.778 56.7966C124.831 56.7966 123.947 56.7966 123.126 56.7966C122.31 56.7966 121.426 56.7966 120.474 56.7966ZM120.474 56.7966C120.474 55.7922 120.474 54.8801 120.474 54.0603C120.474 53.2404 120.474 52.3283 120.474 51.3239C121.426 51.3239 122.31 51.3239 123.126 51.3239C123.947 51.3239 124.831 51.3239 125.778 51.3239C125.778 52.3283 125.778 53.2404 125.778 54.0603C125.778 54.8801 125.778 55.7922 125.778 56.7966C124.831 56.7966 123.947 56.7966 123.126 56.7966C122.31 56.7966 121.426 56.7966 120.474 56.7966ZM120.474 56.7966C120.474 55.7922 120.474 54.8801 120.474 54.0603C120.474 53.2404 120.474 52.3283 120.474 51.3239C121.426 51.3239 122.31 51.3239 123.126 51.3239C123.947 51.3239 124.831 51.3239 125.778 51.3239C125.778 52.3283 125.778 53.2404 125.778 54.0603C125.778 54.8801 125.778 55.7922 125.778 56.7966C124.831 56.7966 123.947 56.7966 123.126 56.7966C122.31 56.7966 121.426 56.7966 120.474 56.7966ZM135.628 56.7966C135.628 55.7922 135.628 54.8801 135.628 54.0603C135.628 53.2404 135.628 52.3283 135.628 51.3239C136.581 51.3239 137.465 51.3239 138.28 51.3239C139.101 51.3239 139.985 51.3239 140.932 51.3239C140.932 52.3283 140.932 53.2404 140.932 54.0603C140.932 54.8801 140.932 55.7922 140.932 56.7966C139.985 56.7966 139.101 56.7966 138.28 56.7966C137.465 56.7966 136.581 56.7966 135.628 56.7966ZM135.628 56.7966C135.628 55.7922 135.628 54.8801 135.628 54.0603C135.628 53.2404 135.628 52.3283 135.628 51.3239C136.581 51.3239 137.465 51.3239 138.28 51.3239C139.101 51.3239 139.985 51.3239 140.932 51.3239C140.932 52.3283 140.932 53.2404 140.932 54.0603C140.932 54.8801 140.932 55.7922 140.932 56.7966C139.985 56.7966 139.101 56.7966 138.28 56.7966C137.465 56.7966 136.581 56.7966 135.628 56.7966ZM135.628 56.7966C135.628 55.7922 135.628 54.8801 135.628 54.0603C135.628 53.2404 135.628 52.3283 135.628 51.3239C136.581 51.3239 137.465 51.3239 138.28 51.3239C139.101 51.3239 139.985 51.3239 140.932 51.3239C140.932 52.3283 140.932 53.2404 140.932 54.0603C140.932 54.8801 140.932 55.7922 140.932 56.7966C139.985 56.7966 139.101 56.7966 138.28 56.7966C137.465 56.7966 136.581 56.7966 135.628 56.7966ZM135.628 56.7966C135.628 55.7922 135.628 54.8801 135.628 54.0603C135.628 53.2404 135.628 52.3283 135.628 51.3239C136.581 51.3239 137.465 51.3239 138.28 51.3239C139.101 51.3239 139.985 51.3239 140.932 51.3239C140.932 52.3283 140.932 53.2404 140.932 54.0603C140.932 54.8801 140.932 55.7922 140.932 56.7966C139.985 56.7966 139.101 56.7966 138.28 56.7966C137.465 56.7966 136.581 56.7966 135.628 56.7966ZM135.628 56.7966C135.628 55.7922 135.628 54.8801 135.628 54.0603C135.628 53.2404 135.628 52.3283 135.628 51.3239C136.581 51.3239 137.465 51.3239 138.28 51.3239C139.101 51.3239 139.985 51.3239 140.932 51.3239C140.932 52.3283 140.932 53.2404 140.932 54.0603C140.932 54.8801 140.932 55.7922 140.932 56.7966C139.985 56.7966 139.101 56.7966 138.28 56.7966C137.465 56.7966 136.581 56.7966 135.628 56.7966ZM135.628 56.7966C135.628 55.7922 135.628 54.8801 135.628 54.0603C135.628 53.2404 135.628 52.3283 135.628 51.3239C136.581 51.3239 137.465 51.3239 138.28 51.3239C139.101 51.3239 139.985 51.3239 140.932 51.3239C140.932 52.3283 140.932 53.2404 140.932 54.0603C140.932 54.8801 140.932 55.7922 140.932 56.7966C139.985 56.7966 139.101 56.7966 138.28 56.7966C137.465 56.7966 136.581 56.7966 135.628 56.7966ZM135.628 56.7966C135.628 55.7922 135.628 54.8801 135.628 54.0603C135.628 53.2404 135.628 52.3283 135.628 51.3239C136.581 51.3239 137.465 51.3239 138.28 51.3239C139.101 51.3239 139.985 51.3239 140.932 51.3239C140.932 52.3283 140.932 53.2404 140.932 54.0603C140.932 54.8801 140.932 55.7922 140.932 56.7966C139.985 56.7966 139.101 56.7966 138.28 56.7966C137.465 56.7966 136.581 56.7966 135.628 56.7966ZM135.628 56.7966C135.628 55.7922 135.628 54.8801 135.628 54.0603C135.628 53.2404 135.628 52.3283 135.628 51.3239C136.581 51.3239 137.465 51.3239 138.28 51.3239C139.101 51.3239 139.985 51.3239 140.932 51.3239C140.932 52.3283 140.932 53.2404 140.932 54.0603C140.932 54.8801 140.932 55.7922 140.932 56.7966C139.985 56.7966 139.101 56.7966 138.28 56.7966C137.465 56.7966 136.581 56.7966 135.628 56.7966ZM135.628 56.7966C135.628 55.7922 135.628 54.8801 135.628 54.0603C135.628 53.2404 135.628 52.3283 135.628 51.3239C136.581 51.3239 137.465 51.3239 138.28 51.3239C139.101 51.3239 139.985 51.3239 140.932 51.3239C140.932 52.3283 140.932 53.2404 140.932 54.0603C140.932 54.8801 140.932 55.7922 140.932 56.7966C139.985 56.7966 139.101 56.7966 138.28 56.7966C137.465 56.7966 136.581 56.7966 135.628 56.7966ZM122.368 52.8875C122.368 51.8831 122.368 50.971 122.368 50.1512C122.368 49.3314 122.368 48.4193 122.368 47.4149C123.321 47.4149 124.205 47.4149 125.02 47.4149C125.841 47.4149 126.725 47.4149 127.672 47.4149C127.672 48.4193 127.672 49.3314 127.672 50.1512C127.672 50.971 127.672 51.8831 127.672 52.8875C126.725 52.8875 125.841 52.8875 125.02 52.8875C124.205 52.8875 123.321 52.8875 122.368 52.8875ZM122.368 52.8875C122.368 51.8831 122.368 50.971 122.368 50.1512C122.368 49.3314 122.368 48.4193 122.368 47.4149C123.321 47.4149 124.205 47.4149 125.02 47.4149C125.841 47.4149 126.725 47.4149 127.672 47.4149C127.672 48.4193 127.672 49.3314 127.672 50.1512C127.672 50.971 127.672 51.8831 127.672 52.8875C126.725 52.8875 125.841 52.8875 125.02 52.8875C124.205 52.8875 123.321 52.8875 122.368 52.8875ZM122.368 52.8875C122.368 51.8831 122.368 50.971 122.368 50.1512C122.368 49.3314 122.368 48.4193 122.368 47.4149C123.321 47.4149 124.205 47.4149 125.02 47.4149C125.841 47.4149 126.725 47.4149 127.672 47.4149C127.672 48.4193 127.672 49.3314 127.672 50.1512C127.672 50.971 127.672 51.8831 127.672 52.8875C126.725 52.8875 125.841 52.8875 125.02 52.8875C124.205 52.8875 123.321 52.8875 122.368 52.8875ZM122.368 52.8875C122.368 51.8831 122.368 50.971 122.368 50.1512C122.368 49.3314 122.368 48.4193 122.368 47.4149C123.321 47.4149 124.205 47.4149 125.02 47.4149C125.841 47.4149 126.725 47.4149 127.672 47.4149C127.672 48.4193 127.672 49.3314 127.672 50.1512C127.672 50.971 127.672 51.8831 127.672 52.8875C126.725 52.8875 125.841 52.8875 125.02 52.8875C124.205 52.8875 123.321 52.8875 122.368 52.8875ZM122.368 52.8875C122.368 51.8831 122.368 50.971 122.368 50.1512C122.368 49.3314 122.368 48.4193 122.368 47.4149C123.321 47.4149 124.205 47.4149 125.02 47.4149C125.841 47.4149 126.725 47.4149 127.672 47.4149C127.672 48.4193 127.672 49.3314 127.672 50.1512C127.672 50.971 127.672 51.8831 127.672 52.8875C126.725 52.8875 125.841 52.8875 125.02 52.8875C124.205 52.8875 123.321 52.8875 122.368 52.8875ZM122.368 52.8875C122.368 51.8831 122.368 50.971 122.368 50.1512C122.368 49.3314 122.368 48.4193 122.368 47.4149C123.321 47.4149 124.205 47.4149 125.02 47.4149C125.841 47.4149 126.725 47.4149 127.672 47.4149C127.672 48.4193 127.672 49.3314 127.672 50.1512C127.672 50.971 127.672 51.8831 127.672 52.8875C126.725 52.8875 125.841 52.8875 125.02 52.8875C124.205 52.8875 123.321 52.8875 122.368 52.8875ZM122.368 52.8875C122.368 51.8831 122.368 50.971 122.368 50.1512C122.368 49.3314 122.368 48.4193 122.368 47.4149C123.321 47.4149 124.205 47.4149 125.02 47.4149C125.841 47.4149 126.725 47.4149 127.672 47.4149C127.672 48.4193 127.672 49.3314 127.672 50.1512C127.672 50.971 127.672 51.8831 127.672 52.8875C126.725 52.8875 125.841 52.8875 125.02 52.8875C124.205 52.8875 123.321 52.8875 122.368 52.8875ZM122.368 52.8875C122.368 51.8831 122.368 50.971 122.368 50.1512C122.368 49.3314 122.368 48.4193 122.368 47.4149C123.321 47.4149 124.205 47.4149 125.02 47.4149C125.841 47.4149 126.725 47.4149 127.672 47.4149C127.672 48.4193 127.672 49.3314 127.672 50.1512C127.672 50.971 127.672 51.8831 127.672 52.8875C126.725 52.8875 125.841 52.8875 125.02 52.8875C124.205 52.8875 123.321 52.8875 122.368 52.8875ZM122.368 52.8875C122.368 51.8831 122.368 50.971 122.368 50.1512C122.368 49.3314 122.368 48.4193 122.368 47.4149C123.321 47.4149 124.205 47.4149 125.02 47.4149C125.841 47.4149 126.725 47.4149 127.672 47.4149C127.672 48.4193 127.672 49.3314 127.672 50.1512C127.672 50.971 127.672 51.8831 127.672 52.8875C126.725 52.8875 125.841 52.8875 125.02 52.8875C124.205 52.8875 123.321 52.8875 122.368 52.8875ZM133.734 52.8875C133.734 51.8831 133.734 50.971 133.734 50.1512C133.734 49.3314 133.734 48.4193 133.734 47.4149C134.686 47.4149 135.57 47.4149 136.386 47.4149C137.207 47.4149 138.091 47.4149 139.038 47.4149C139.038 48.4193 139.038 49.3314 139.038 50.1512C139.038 50.971 139.038 51.8831 139.038 52.8875C138.091 52.8875 137.207 52.8875 136.386 52.8875C135.57 52.8875 134.686 52.8875 133.734 52.8875ZM133.734 52.8875C133.734 51.8831 133.734 50.971 133.734 50.1512C133.734 49.3314 133.734 48.4193 133.734 47.4149C134.686 47.4149 135.57 47.4149 136.386 47.4149C137.207 47.4149 138.091 47.4149 139.038 47.4149C139.038 48.4193 139.038 49.3314 139.038 50.1512C139.038 50.971 139.038 51.8831 139.038 52.8875C138.091 52.8875 137.207 52.8875 136.386 52.8875C135.57 52.8875 134.686 52.8875 133.734 52.8875ZM133.734 52.8875C133.734 51.8831 133.734 50.971 133.734 50.1512C133.734 49.3314 133.734 48.4193 133.734 47.4149C134.686 47.4149 135.57 47.4149 136.386 47.4149C137.207 47.4149 138.091 47.4149 139.038 47.4149C139.038 48.4193 139.038 49.3314 139.038 50.1512C139.038 50.971 139.038 51.8831 139.038 52.8875C138.091 52.8875 137.207 52.8875 136.386 52.8875C135.57 52.8875 134.686 52.8875 133.734 52.8875ZM133.734 52.8875C133.734 51.8831 133.734 50.971 133.734 50.1512C133.734 49.3314 133.734 48.4193 133.734 47.4149C134.686 47.4149 135.57 47.4149 136.386 47.4149C137.207 47.4149 138.091 47.4149 139.038 47.4149C139.038 48.4193 139.038 49.3314 139.038 50.1512C139.038 50.971 139.038 51.8831 139.038 52.8875C138.091 52.8875 137.207 52.8875 136.386 52.8875C135.57 52.8875 134.686 52.8875 133.734 52.8875ZM133.734 52.8875C133.734 51.8831 133.734 50.971 133.734 50.1512C133.734 49.3314 133.734 48.4193 133.734 47.4149C134.686 47.4149 135.57 47.4149 136.386 47.4149C137.207 47.4149 138.091 47.4149 139.038 47.4149C139.038 48.4193 139.038 49.3314 139.038 50.1512C139.038 50.971 139.038 51.8831 139.038 52.8875C138.091 52.8875 137.207 52.8875 136.386 52.8875C135.57 52.8875 134.686 52.8875 133.734 52.8875ZM133.734 52.8875C133.734 51.8831 133.734 50.971 133.734 50.1512C133.734 49.3314 133.734 48.4193 133.734 47.4149C134.686 47.4149 135.57 47.4149 136.386 47.4149C137.207 47.4149 138.091 47.4149 139.038 47.4149C139.038 48.4193 139.038 49.3314 139.038 50.1512C139.038 50.971 139.038 51.8831 139.038 52.8875C138.091 52.8875 137.207 52.8875 136.386 52.8875C135.57 52.8875 134.686 52.8875 133.734 52.8875ZM133.734 52.8875C133.734 51.8831 133.734 50.971 133.734 50.1512C133.734 49.3314 133.734 48.4193 133.734 47.4149C134.686 47.4149 135.57 47.4149 136.386 47.4149C137.207 47.4149 138.091 47.4149 139.038 47.4149C139.038 48.4193 139.038 49.3314 139.038 50.1512C139.038 50.971 139.038 51.8831 139.038 52.8875C138.091 52.8875 137.207 52.8875 136.386 52.8875C135.57 52.8875 134.686 52.8875 133.734 52.8875ZM133.734 52.8875C133.734 51.8831 133.734 50.971 133.734 50.1512C133.734 49.3314 133.734 48.4193 133.734 47.4149C134.686 47.4149 135.57 47.4149 136.386 47.4149C137.207 47.4149 138.091 47.4149 139.038 47.4149C139.038 48.4193 139.038 49.3314 139.038 50.1512C139.038 50.971 139.038 51.8831 139.038 52.8875C138.091 52.8875 137.207 52.8875 136.386 52.8875C135.57 52.8875 134.686 52.8875 133.734 52.8875ZM133.734 52.8875C133.734 51.8831 133.734 50.971 133.734 50.1512C133.734 49.3314 133.734 48.4193 133.734 47.4149C134.686 47.4149 135.57 47.4149 136.386 47.4149C137.207 47.4149 138.091 47.4149 139.038 47.4149C139.038 48.4193 139.038 49.3314 139.038 50.1512C139.038 50.971 139.038 51.8831 139.038 52.8875C138.091 52.8875 137.207 52.8875 136.386 52.8875C135.57 52.8875 134.686 52.8875 133.734 52.8875ZM124.263 48.9785C124.263 47.9741 124.263 47.062 124.263 46.2422C124.263 45.4224 124.263 44.5102 124.263 43.5058C125.215 43.5058 126.099 43.5058 126.915 43.5058C127.735 43.5058 128.619 43.5058 129.567 43.5058C129.567 44.5102 129.567 45.4224 129.567 46.2422C129.567 47.062 129.567 47.9741 129.567 48.9785C128.619 48.9785 127.735 48.9785 126.915 48.9785C126.099 48.9785 125.215 48.9785 124.263 48.9785ZM124.263 48.9785C124.263 47.9741 124.263 47.062 124.263 46.2422C124.263 45.4224 124.263 44.5102 124.263 43.5058C125.215 43.5058 126.099 43.5058 126.915 43.5058C127.735 43.5058 128.619 43.5058 129.567 43.5058C129.567 44.5102 129.567 45.4224 129.567 46.2422C129.567 47.062 129.567 47.9741 129.567 48.9785C128.619 48.9785 127.735 48.9785 126.915 48.9785C126.099 48.9785 125.215 48.9785 124.263 48.9785ZM124.263 48.9785C124.263 47.9741 124.263 47.062 124.263 46.2422C124.263 45.4224 124.263 44.5102 124.263 43.5058C125.215 43.5058 126.099 43.5058 126.915 43.5058C127.735 43.5058 128.619 43.5058 129.567 43.5058C129.567 44.5102 129.567 45.4224 129.567 46.2422C129.567 47.062 129.567 47.9741 129.567 48.9785C128.619 48.9785 127.735 48.9785 126.915 48.9785C126.099 48.9785 125.215 48.9785 124.263 48.9785ZM124.263 48.9785C124.263 47.9741 124.263 47.062 124.263 46.2422C124.263 45.4224 124.263 44.5102 124.263 43.5058C125.215 43.5058 126.099 43.5058 126.915 43.5058C127.735 43.5058 128.619 43.5058 129.567 43.5058C129.567 44.5102 129.567 45.4224 129.567 46.2422C129.567 47.062 129.567 47.9741 129.567 48.9785C128.619 48.9785 127.735 48.9785 126.915 48.9785C126.099 48.9785 125.215 48.9785 124.263 48.9785ZM124.263 48.9785C124.263 47.9741 124.263 47.062 124.263 46.2422C124.263 45.4224 124.263 44.5102 124.263 43.5058C125.215 43.5058 126.099 43.5058 126.915 43.5058C127.735 43.5058 128.619 43.5058 129.567 43.5058C129.567 44.5102 129.567 45.4224 129.567 46.2422C129.567 47.062 129.567 47.9741 129.567 48.9785C128.619 48.9785 127.735 48.9785 126.915 48.9785C126.099 48.9785 125.215 48.9785 124.263 48.9785ZM124.263 48.9785C124.263 47.9741 124.263 47.062 124.263 46.2422C124.263 45.4224 124.263 44.5102 124.263 43.5058C125.215 43.5058 126.099 43.5058 126.915 43.5058C127.735 43.5058 128.619 43.5058 129.567 43.5058C129.567 44.5102 129.567 45.4224 129.567 46.2422C129.567 47.062 129.567 47.9741 129.567 48.9785C128.619 48.9785 127.735 48.9785 126.915 48.9785C126.099 48.9785 125.215 48.9785 124.263 48.9785ZM124.263 48.9785C124.263 47.9741 124.263 47.062 124.263 46.2422C124.263 45.4224 124.263 44.5102 124.263 43.5058C125.215 43.5058 126.099 43.5058 126.915 43.5058C127.735 43.5058 128.619 43.5058 129.567 43.5058C129.567 44.5102 129.567 45.4224 129.567 46.2422C129.567 47.062 129.567 47.9741 129.567 48.9785C128.619 48.9785 127.735 48.9785 126.915 48.9785C126.099 48.9785 125.215 48.9785 124.263 48.9785ZM124.263 48.9785C124.263 47.9741 124.263 47.062 124.263 46.2422C124.263 45.4224 124.263 44.5102 124.263 43.5058C125.215 43.5058 126.099 43.5058 126.915 43.5058C127.735 43.5058 128.619 43.5058 129.567 43.5058C129.567 44.5102 129.567 45.4224 129.567 46.2422C129.567 47.062 129.567 47.9741 129.567 48.9785C128.619 48.9785 127.735 48.9785 126.915 48.9785C126.099 48.9785 125.215 48.9785 124.263 48.9785ZM124.263 48.9785C124.263 47.9741 124.263 47.062 124.263 46.2422C124.263 45.4224 124.263 44.5102 124.263 43.5058C125.215 43.5058 126.099 43.5058 126.915 43.5058C127.735 43.5058 128.619 43.5058 129.567 43.5058C129.567 44.5102 129.567 45.4224 129.567 46.2422C129.567 47.062 129.567 47.9741 129.567 48.9785C128.619 48.9785 127.735 48.9785 126.915 48.9785C126.099 48.9785 125.215 48.9785 124.263 48.9785ZM131.84 48.9785C131.84 47.9741 131.84 47.062 131.84 46.2422C131.84 45.4224 131.84 44.5102 131.84 43.5058C132.792 43.5058 133.676 43.5058 134.492 43.5058C135.313 43.5058 136.197 43.5058 137.144 43.5058C137.144 44.5102 137.144 45.4224 137.144 46.2422C137.144 47.062 137.144 47.9741 137.144 48.9785C136.197 48.9785 135.313 48.9785 134.492 48.9785C133.676 48.9785 132.792 48.9785 131.84 48.9785ZM131.84 48.9785C131.84 47.9741 131.84 47.062 131.84 46.2422C131.84 45.4224 131.84 44.5102 131.84 43.5058C132.792 43.5058 133.676 43.5058 134.492 43.5058C135.313 43.5058 136.197 43.5058 137.144 43.5058C137.144 44.5102 137.144 45.4224 137.144 46.2422C137.144 47.062 137.144 47.9741 137.144 48.9785C136.197 48.9785 135.313 48.9785 134.492 48.9785C133.676 48.9785 132.792 48.9785 131.84 48.9785ZM131.84 48.9785C131.84 47.9741 131.84 47.062 131.84 46.2422C131.84 45.4224 131.84 44.5102 131.84 43.5058C132.792 43.5058 133.676 43.5058 134.492 43.5058C135.313 43.5058 136.197 43.5058 137.144 43.5058C137.144 44.5102 137.144 45.4224 137.144 46.2422C137.144 47.062 137.144 47.9741 137.144 48.9785C136.197 48.9785 135.313 48.9785 134.492 48.9785C133.676 48.9785 132.792 48.9785 131.84 48.9785ZM131.84 48.9785C131.84 47.9741 131.84 47.062 131.84 46.2422C131.84 45.4224 131.84 44.5102 131.84 43.5058C132.792 43.5058 133.676 43.5058 134.492 43.5058C135.313 43.5058 136.197 43.5058 137.144 43.5058C137.144 44.5102 137.144 45.4224 137.144 46.2422C137.144 47.062 137.144 47.9741 137.144 48.9785C136.197 48.9785 135.313 48.9785 134.492 48.9785C133.676 48.9785 132.792 48.9785 131.84 48.9785ZM131.84 48.9785C131.84 47.9741 131.84 47.062 131.84 46.2422C131.84 45.4224 131.84 44.5102 131.84 43.5058C132.792 43.5058 133.676 43.5058 134.492 43.5058C135.313 43.5058 136.197 43.5058 137.144 43.5058C137.144 44.5102 137.144 45.4224 137.144 46.2422C137.144 47.062 137.144 47.9741 137.144 48.9785C136.197 48.9785 135.313 48.9785 134.492 48.9785C133.676 48.9785 132.792 48.9785 131.84 48.9785ZM131.84 48.9785C131.84 47.9741 131.84 47.062 131.84 46.2422C131.84 45.4224 131.84 44.5102 131.84 43.5058C132.792 43.5058 133.676 43.5058 134.492 43.5058C135.313 43.5058 136.197 43.5058 137.144 43.5058C137.144 44.5102 137.144 45.4224 137.144 46.2422C137.144 47.062 137.144 47.9741 137.144 48.9785C136.197 48.9785 135.313 48.9785 134.492 48.9785C133.676 48.9785 132.792 48.9785 131.84 48.9785ZM131.84 48.9785C131.84 47.9741 131.84 47.062 131.84 46.2422C131.84 45.4224 131.84 44.5102 131.84 43.5058C132.792 43.5058 133.676 43.5058 134.492 43.5058C135.313 43.5058 136.197 43.5058 137.144 43.5058C137.144 44.5102 137.144 45.4224 137.144 46.2422C137.144 47.062 137.144 47.9741 137.144 48.9785C136.197 48.9785 135.313 48.9785 134.492 48.9785C133.676 48.9785 132.792 48.9785 131.84 48.9785ZM131.84 48.9785C131.84 47.9741 131.84 47.062 131.84 46.2422C131.84 45.4224 131.84 44.5102 131.84 43.5058C132.792 43.5058 133.676 43.5058 134.492 43.5058C135.313 43.5058 136.197 43.5058 137.144 43.5058C137.144 44.5102 137.144 45.4224 137.144 46.2422C137.144 47.062 137.144 47.9741 137.144 48.9785C136.197 48.9785 135.313 48.9785 134.492 48.9785C133.676 48.9785 132.792 48.9785 131.84 48.9785ZM131.84 48.9785C131.84 47.9741 131.84 47.062 131.84 46.2422C131.84 45.4224 131.84 44.5102 131.84 43.5058C132.792 43.5058 133.676 43.5058 134.492 43.5058C135.313 43.5058 136.197 43.5058 137.144 43.5058C137.144 44.5102 137.144 45.4224 137.144 46.2422C137.144 47.062 137.144 47.9741 137.144 48.9785C136.197 48.9785 135.313 48.9785 134.492 48.9785C133.676 48.9785 132.792 48.9785 131.84 48.9785ZM126.157 45.0695C126.157 44.0651 126.157 43.1529 126.157 42.3331C126.157 41.5133 126.157 40.6012 126.157 39.5968C127.109 39.5968 127.993 39.5968 128.809 39.5968C129.63 39.5968 130.514 39.5968 131.461 39.5968C131.461 40.6012 131.461 41.5133 131.461 42.3331C131.461 43.1529 131.461 44.0651 131.461 45.0695C130.514 45.0695 129.63 45.0695 128.809 45.0695C127.993 45.0695 127.109 45.0695 126.157 45.0695ZM126.157 45.0695C126.157 44.0651 126.157 43.1529 126.157 42.3331C126.157 41.5133 126.157 40.6012 126.157 39.5968C127.109 39.5968 127.993 39.5968 128.809 39.5968C129.63 39.5968 130.514 39.5968 131.461 39.5968C131.461 40.6012 131.461 41.5133 131.461 42.3331C131.461 43.1529 131.461 44.0651 131.461 45.0695C130.514 45.0695 129.63 45.0695 128.809 45.0695C127.993 45.0695 127.109 45.0695 126.157 45.0695ZM126.157 45.0695C126.157 44.0651 126.157 43.1529 126.157 42.3331C126.157 41.5133 126.157 40.6012 126.157 39.5968C127.109 39.5968 127.993 39.5968 128.809 39.5968C129.63 39.5968 130.514 39.5968 131.461 39.5968C131.461 40.6012 131.461 41.5133 131.461 42.3331C131.461 43.1529 131.461 44.0651 131.461 45.0695C130.514 45.0695 129.63 45.0695 128.809 45.0695C127.993 45.0695 127.109 45.0695 126.157 45.0695ZM126.157 45.0695C126.157 44.0651 126.157 43.1529 126.157 42.3331C126.157 41.5133 126.157 40.6012 126.157 39.5968C127.109 39.5968 127.993 39.5968 128.809 39.5968C129.63 39.5968 130.514 39.5968 131.461 39.5968C131.461 40.6012 131.461 41.5133 131.461 42.3331C131.461 43.1529 131.461 44.0651 131.461 45.0695C130.514 45.0695 129.63 45.0695 128.809 45.0695C127.993 45.0695 127.109 45.0695 126.157 45.0695ZM126.157 45.0695C126.157 44.0651 126.157 43.1529 126.157 42.3331C126.157 41.5133 126.157 40.6012 126.157 39.5968C127.109 39.5968 127.993 39.5968 128.809 39.5968C129.63 39.5968 130.514 39.5968 131.461 39.5968C131.461 40.6012 131.461 41.5133 131.461 42.3331C131.461 43.1529 131.461 44.0651 131.461 45.0695C130.514 45.0695 129.63 45.0695 128.809 45.0695C127.993 45.0695 127.109 45.0695 126.157 45.0695ZM126.157 45.0695C126.157 44.0651 126.157 43.1529 126.157 42.3331C126.157 41.5133 126.157 40.6012 126.157 39.5968C127.109 39.5968 127.993 39.5968 128.809 39.5968C129.63 39.5968 130.514 39.5968 131.461 39.5968C131.461 40.6012 131.461 41.5133 131.461 42.3331C131.461 43.1529 131.461 44.0651 131.461 45.0695C130.514 45.0695 129.63 45.0695 128.809 45.0695C127.993 45.0695 127.109 45.0695 126.157 45.0695ZM126.157 45.0695C126.157 44.0651 126.157 43.1529 126.157 42.3331C126.157 41.5133 126.157 40.6012 126.157 39.5968C127.109 39.5968 127.993 39.5968 128.809 39.5968C129.63 39.5968 130.514 39.5968 131.461 39.5968C131.461 40.6012 131.461 41.5133 131.461 42.3331C131.461 43.1529 131.461 44.0651 131.461 45.0695C130.514 45.0695 129.63 45.0695 128.809 45.0695C127.993 45.0695 127.109 45.0695 126.157 45.0695ZM126.157 45.0695C126.157 44.0651 126.157 43.1529 126.157 42.3331C126.157 41.5133 126.157 40.6012 126.157 39.5968C127.109 39.5968 127.993 39.5968 128.809 39.5968C129.63 39.5968 130.514 39.5968 131.461 39.5968C131.461 40.6012 131.461 41.5133 131.461 42.3331C131.461 43.1529 131.461 44.0651 131.461 45.0695C130.514 45.0695 129.63 45.0695 128.809 45.0695C127.993 45.0695 127.109 45.0695 126.157 45.0695ZM126.157 45.0695C126.157 44.0651 126.157 43.1529 126.157 42.3331C126.157 41.5133 126.157 40.6012 126.157 39.5968C127.109 39.5968 127.993 39.5968 128.809 39.5968C129.63 39.5968 130.514 39.5968 131.461 39.5968C131.461 40.6012 131.461 41.5133 131.461 42.3331C131.461 43.1529 131.461 44.0651 131.461 45.0695C130.514 45.0695 129.63 45.0695 128.809 45.0695C127.993 45.0695 127.109 45.0695 126.157 45.0695ZM129.945 45.0695C129.945 44.0651 129.945 43.1529 129.945 42.3331C129.945 41.5133 129.945 40.6012 129.945 39.5968C130.898 39.5968 131.782 39.5968 132.597 39.5968C133.418 39.5968 134.302 39.5968 135.249 39.5968C135.249 40.6012 135.249 41.5133 135.249 42.3331C135.249 43.1529 135.249 44.0651 135.249 45.0695C134.302 45.0695 133.418 45.0695 132.597 45.0695C131.782 45.0695 130.898 45.0695 129.945 45.0695ZM129.945 45.0695C129.945 44.0651 129.945 43.1529 129.945 42.3331C129.945 41.5133 129.945 40.6012 129.945 39.5968C130.898 39.5968 131.782 39.5968 132.597 39.5968C133.418 39.5968 134.302 39.5968 135.249 39.5968C135.249 40.6012 135.249 41.5133 135.249 42.3331C135.249 43.1529 135.249 44.0651 135.249 45.0695C134.302 45.0695 133.418 45.0695 132.597 45.0695C131.782 45.0695 130.898 45.0695 129.945 45.0695ZM129.945 45.0695C129.945 44.0651 129.945 43.1529 129.945 42.3331C129.945 41.5133 129.945 40.6012 129.945 39.5968C130.898 39.5968 131.782 39.5968 132.597 39.5968C133.418 39.5968 134.302 39.5968 135.249 39.5968C135.249 40.6012 135.249 41.5133 135.249 42.3331C135.249 43.1529 135.249 44.0651 135.249 45.0695C134.302 45.0695 133.418 45.0695 132.597 45.0695C131.782 45.0695 130.898 45.0695 129.945 45.0695ZM129.945 45.0695C129.945 44.0651 129.945 43.1529 129.945 42.3331C129.945 41.5133 129.945 40.6012 129.945 39.5968C130.898 39.5968 131.782 39.5968 132.597 39.5968C133.418 39.5968 134.302 39.5968 135.249 39.5968C135.249 40.6012 135.249 41.5133 135.249 42.3331C135.249 43.1529 135.249 44.0651 135.249 45.0695C134.302 45.0695 133.418 45.0695 132.597 45.0695C131.782 45.0695 130.898 45.0695 129.945 45.0695ZM129.945 45.0695C129.945 44.0651 129.945 43.1529 129.945 42.3331C129.945 41.5133 129.945 40.6012 129.945 39.5968C130.898 39.5968 131.782 39.5968 132.597 39.5968C133.418 39.5968 134.302 39.5968 135.249 39.5968C135.249 40.6012 135.249 41.5133 135.249 42.3331C135.249 43.1529 135.249 44.0651 135.249 45.0695C134.302 45.0695 133.418 45.0695 132.597 45.0695C131.782 45.0695 130.898 45.0695 129.945 45.0695ZM129.945 45.0695C129.945 44.0651 129.945 43.1529 129.945 42.3331C129.945 41.5133 129.945 40.6012 129.945 39.5968C130.898 39.5968 131.782 39.5968 132.597 39.5968C133.418 39.5968 134.302 39.5968 135.249 39.5968C135.249 40.6012 135.249 41.5133 135.249 42.3331C135.249 43.1529 135.249 44.0651 135.249 45.0695C134.302 45.0695 133.418 45.0695 132.597 45.0695C131.782 45.0695 130.898 45.0695 129.945 45.0695ZM129.945 45.0695C129.945 44.0651 129.945 43.1529 129.945 42.3331C129.945 41.5133 129.945 40.6012 129.945 39.5968C130.898 39.5968 131.782 39.5968 132.597 39.5968C133.418 39.5968 134.302 39.5968 135.249 39.5968C135.249 40.6012 135.249 41.5133 135.249 42.3331C135.249 43.1529 135.249 44.0651 135.249 45.0695C134.302 45.0695 133.418 45.0695 132.597 45.0695C131.782 45.0695 130.898 45.0695 129.945 45.0695ZM129.945 45.0695C129.945 44.0651 129.945 43.1529 129.945 42.3331C129.945 41.5133 129.945 40.6012 129.945 39.5968C130.898 39.5968 131.782 39.5968 132.597 39.5968C133.418 39.5968 134.302 39.5968 135.249 39.5968C135.249 40.6012 135.249 41.5133 135.249 42.3331C135.249 43.1529 135.249 44.0651 135.249 45.0695C134.302 45.0695 133.418 45.0695 132.597 45.0695C131.782 45.0695 130.898 45.0695 129.945 45.0695ZM129.945 45.0695C129.945 44.0651 129.945 43.1529 129.945 42.3331C129.945 41.5133 129.945 40.6012 129.945 39.5968C130.898 39.5968 131.782 39.5968 132.597 39.5968C133.418 39.5968 134.302 39.5968 135.249 39.5968C135.249 40.6012 135.249 41.5133 135.249 42.3331C135.249 43.1529 135.249 44.0651 135.249 45.0695C134.302 45.0695 133.418 45.0695 132.597 45.0695C131.782 45.0695 130.898 45.0695 129.945 45.0695Z" fill="white"/>
<path d="M154.593 84.1599V78.6872H159.897V84.1599H154.593ZM154.593 80.2508V74.7782H159.897V80.2508H154.593ZM154.593 76.3418V70.8691H159.897V76.3418H154.593ZM154.593 72.4327V66.9601H159.897V72.4327H154.593ZM152.699 68.5237V63.051H158.003V68.5237H152.699ZM156.488 68.5237V63.051H161.792V68.5237H156.488ZM150.805 64.6147V59.142H156.109V64.6147H150.805ZM158.382 64.6147V59.142H163.686V64.6147H158.382ZM148.911 60.7056V55.233H154.215V60.7056H148.911ZM160.276 60.7056V55.233H165.58V60.7056H160.276ZM147.016 56.7966V51.3239H152.32V56.7966H147.016ZM162.171 56.7966V51.3239H167.475V56.7966H162.171ZM145.122 52.8875V47.4149H150.426V52.8875H145.122ZM164.065 52.8875V47.4149H169.369V52.8875H164.065ZM145.122 48.9785V43.5058H150.426V48.9785H145.122ZM164.065 48.9785V43.5058H169.369V48.9785H164.065ZM145.122 45.0695V39.5968H150.426V45.0695H145.122ZM164.065 45.0695V39.5968H169.369V45.0695H164.065Z" fill="white"/>
<path d="M193.772 38.5983L223.062 63.197L193.773 87.7976L193.772 38.5983Z" fill="white"/>
</svg>
