<svg width="307" height="125" viewBox="0 0 307 125" fill="none" xmlns="http://www.w3.org/2000/svg">
<path d="M2 43.9223V18H50.2106" stroke="#FF5353" stroke-opacity="0.8" stroke-width="3.64078"/>
<path d="M50.2106 107H2L2 81.0777" stroke="#FF5353" stroke-opacity="0.8" stroke-width="3.64078"/>
<path d="M304.265 81.0777V107H256.055" stroke="#FF5353" stroke-opacity="0.8" stroke-width="3.64078"/>
<path d="M256.055 18L304.265 18V43.9223" stroke="#FF5353" stroke-opacity="0.8" stroke-width="3.64078"/>
<path d="M71.1418 82.8182V77.9091H76.1119V82.8182H71.1418ZM75.2836 82.8182V77.9091H80.2537V82.8182H75.2836ZM79.4253 82.8182V77.9091H84.3955V82.8182H79.4253ZM67 78.7273V73.8182H71.9701V78.7273H67ZM83.5671 78.7273V73.8182H88.5372V78.7273H83.5671ZM67 74.6364V69.7273H71.9701V74.6364H67ZM83.5671 74.6364V69.7273H88.5372V74.6364H83.5671ZM67 70.5455V65.6364H71.9701V70.5455H67ZM83.5671 70.5455V65.6364H88.5372V70.5455H83.5671ZM67 66.4545V61.5455H71.9701V66.4545H67ZM83.5671 66.4545V61.5455H88.5372V66.4545H83.5671ZM67 62.3636V57.4545H71.9701V62.3636H67ZM83.5671 62.3636V57.4545H88.5372V62.3636H83.5671ZM67 58.2727V53.3636H71.9701V58.2727H67ZM83.5671 58.2727V53.3636H88.5372V58.2727H83.5671ZM67 54.1818V49.2727H71.9701V54.1818H67ZM83.5671 54.1818V49.2727H88.5372V54.1818H83.5671ZM67 50.0909V45.1818H71.9701V50.0909H67ZM83.5671 50.0909V45.1818H88.5372V50.0909H83.5671ZM67 46V41.0909H71.9701V46H67ZM83.5671 46V41.0909H88.5372V46H83.5671ZM71.1418 41.9091V37H76.1119V41.9091H71.1418ZM75.2836 41.9091V37H80.2537V41.9091H75.2836ZM79.4253 41.9091V37H84.3955V41.9091H79.4253ZM75.2836 91V86.0909H80.2537V91H75.2836ZM79.4253 91V86.0909H84.3955V91H79.4253ZM83.5671 91V86.0909H88.5372V91H83.5671ZM87.7089 91V86.0909H92.679V91H87.7089Z" fill="#FF0000"/>
<path d="M100.158 82.8182V77.9091H105.129V82.8182H100.158ZM104.3 82.8182V77.9091H109.27V82.8182H104.3ZM108.442 82.8182V77.9091H113.412V82.8182H108.442ZM96.0167 78.7273V73.8182H100.987V78.7273H96.0167ZM112.584 78.7273V73.8182H117.554V78.7273H112.584ZM96.0167 74.6364V69.7273H100.987V74.6364H96.0167ZM112.584 74.6364V69.7273H117.554V74.6364H112.584ZM96.0167 70.5455V65.6364H100.987V70.5455H96.0167ZM112.584 70.5455V65.6364H117.554V70.5455H112.584ZM96.0167 66.4545V61.5455H100.987V66.4545H96.0167ZM112.584 66.4545V61.5455H117.554V66.4545H112.584ZM96.0167 62.3636V57.4545H100.987V62.3636H96.0167ZM112.584 62.3636V57.4545H117.554V62.3636H112.584ZM96.0167 58.2727V53.3636H100.987V58.2727H96.0167ZM112.584 58.2727V53.3636H117.554V58.2727H112.584ZM96.0167 54.1818V49.2727H100.987V54.1818H96.0167ZM112.584 54.1818V49.2727H117.554V54.1818H112.584ZM96.0167 50.0909V45.1818H100.987V50.0909H96.0167ZM112.584 50.0909V45.1818H117.554V50.0909H112.584ZM96.0167 46V41.0909H100.987V46H96.0167ZM112.584 46V41.0909H117.554V46H112.584ZM96.0167 41.9091V37H100.987V41.9091H96.0167ZM112.584 41.9091V37H117.554V41.9091H112.584Z" fill="#FF0000"/>
<path d="M122.963 82.8182V77.9091H127.933V82.8182H122.963ZM127.104 82.8182V77.9091H132.074V82.8182H127.104ZM131.246 82.8182V77.9091H136.216V82.8182H131.246ZM127.104 78.7273V73.8182H132.074V78.7273H127.104ZM127.104 74.6364V69.7273H132.074V74.6364H127.104ZM127.104 70.5455V65.6364H132.074V70.5455H127.104ZM127.104 66.4545V61.5455H132.074V66.4545H127.104ZM127.104 62.3636V57.4545H132.074V62.3636H127.104ZM127.104 58.2727V53.3636H132.074V58.2727H127.104ZM127.104 54.1818V49.2727H132.074V54.1818H127.104ZM127.104 50.0909V45.1818H132.074V50.0909H127.104ZM127.104 46V41.0909H132.074V46H127.104ZM122.963 41.9091V37H127.933V41.9091H122.963ZM127.104 41.9091V37H132.074V41.9091H127.104ZM131.246 41.9091V37H136.216V41.9091H131.246Z" fill="#FF0000"/>
<path d="M145.746 82.8182V77.9091H150.716V82.8182H145.746ZM145.746 78.7273V73.8182H150.716V78.7273H145.746ZM145.746 74.6364V69.7273H150.716V74.6364H145.746ZM145.746 70.5455V65.6364H150.716V70.5455H145.746ZM145.746 66.4545V61.5455H150.716V66.4545H145.746ZM145.746 62.3636V57.4545H150.716V62.3636H145.746ZM145.746 58.2727V53.3636H150.716V58.2727H145.746ZM145.746 54.1818V49.2727H150.716V54.1818H145.746ZM145.746 50.0909V45.1818H150.716V50.0909H145.746ZM145.746 46V41.0909H150.716V46H145.746ZM137.463 41.9091V37H142.433V41.9091H137.463ZM141.605 41.9091V37H146.575V41.9091H141.605ZM145.746 41.9091V37H150.716V41.9091H145.746ZM149.888 41.9091V37H154.858V41.9091H149.888ZM154.03 41.9091V37H159V41.9091H154.03Z" fill="#FF0000"/>
<path d="M180.839 69.4379C178.968 69.4379 177.586 67.792 178.521 66.6784L199.025 42.2635C199.848 41.2838 201.902 41.4565 202.849 42.5852L223.355 66.9995C224.303 68.1281 223.494 69.4372 221.848 69.4372L180.839 69.4379Z" fill="#FF0000"/>
<rect x="176" y="75" width="49" height="6" rx="2" fill="#FF0000"/>
</svg>
